<svg xmlns="http://www.w3.org/2000/svg" width="22" height="42" viewBox="0 0 22 42"><path d="m5.31.05c-.69.18-1.23.7-1.44,1.4-.04.13-.04.28-.05,1.37v1.22s-.66,0-.66,0c-.36,0-.76.01-.88.02-.42.04-.86.21-1.2.45-.43.3-.81.82-.96,1.31,0,.02-.01.04-.02.05h0s0,.01,0,.02C0,6.13,0,6.41,0,20.39c0,.83,0,1.7,0,2.62,0,15.07,0,16.71.04,16.91.19,1.05,1.07,1.91,2.13,2.05.27.04,17.39.04,17.66,0,.36-.05.75-.2,1.08-.42.23-.16.57-.51.72-.76.14-.23.26-.52.32-.77.04-.15.04-1.51.05-16.91,0-12.31,0-16.8-.02-16.93-.08-.54-.33-1.02-.71-1.41-.42-.42-.95-.67-1.53-.73-.12-.01-.52-.02-.88-.02h-.66s0-1.22,0-1.22c0-1.08-.01-1.24-.05-1.37-.12-.39-.36-.76-.65-1-.2-.16-.54-.33-.79-.4-.18-.05-1.45-.05-6.26-.05s-4.95,0-5.13.05Zm11.29,1.7c-.04-.08-.09-.12-.16-.16l-.11-.05H5.68l-.11.05c-.08.04-.12.09-.16.16q-.06.11-.06,1.2v1.09h11.29v-1.09q0-1.09-.06-1.2Zm3.77,4.4c-.13-.27-.37-.47-.66-.54-.13-.03-2.12-.04-9.28-.04-.54,0-1.05,0-1.53,0-6.43,0-6.65,0-6.8.1,0,0-.01,0-.02.01-.01,0-.02.02-.04.03-.17.1-.32.26-.4.44l-.08.16v16.66c-.01,16.57-.01,16.66.04,16.82.09.28.34.54.63.63.15.05.2.05,8.22.05s9.2,0,9.34-.05c.29-.1.54-.35.63-.63.05-.16.05-.25.04-16.82V6.3s-.08-.16-.08-.16Z" fill="#50b76a" fill-rule="evenodd"/><path d="m18,7H4c-.55,0-1,.45-1,1v30c0,.55.45,1,1,1h14c.55,0,1-.45,1-1V8c0-.55-.45-1-1-1Zm-2.03,14.28c-.03.1-.65,1.09-3.47,5.51-.34.53-1.04,1.64-1.57,2.47-.73,1.16-.98,1.52-1.05,1.58-.4.31-.96.12-1.1-.38l-.05-.18.32-2.69c.18-1.48.33-2.73.33-2.78v-.09s-1.4,0-1.4,0h-.22c-1.09,0-1.3,0-1.43-.11-.03-.02-.06-.05-.09-.09l-.03-.03c-.17-.19-.22-.33-.21-.59,0-.11.03-.21.06-.27.04-.09.67-1.09,4.13-6.52.57-.9,1.21-1.9,1.41-2.22.21-.32.4-.62.43-.66.08-.09.18-.16.3-.2.29-.1.69.08.83.39.09.19.09.29.03.8-.24,2-.6,5.04-.6,5.05,0,0,.62.01,1.38.01,1.31,0,1.39,0,1.52.05.28.09.47.35.49.67,0,.12,0,.21-.02.29Z" fill="#00ad1d"/></svg>