<svg xmlns="http://www.w3.org/2000/svg" width="590" height="330" viewBox="0 0 590 330"><path fill="#fff" d="M0 132.3h590V330H0z"/><path fill="#f5c55f" d="M0 0h590v132.3H0z"/><path fill="#fff" d="M206 56.3l-5-.2a33.3 33.3 0 0 1-5.2-.7V25.8a40.6 40.6 0 0 1 4.7-.6l4.6-.2a30 30 0 0 1 5.4.4 12.4 12.4 0 0 1 4.2 1.5 7.3 7.3 0 0 1 2.7 2.6 7.5 7.5 0 0 1 1 4 6.5 6.5 0 0 1-3.5 5.9 7.2 7.2 0 0 1 4 3 8.6 8.6 0 0 1 1 4.2 8.2 8.2 0 0 1-3.5 7.3q-3.5 2.4-10.4 2.4zm-3.5-13.7v7.9l1.7.1h1.9a12 12 0 0 0 5-.9 3.3 3.3 0 0 0 1.9-3.2 3.1 3.1 0 0 0-1.6-3 9.1 9.1 0 0 0-4.5-1zm0-5.2h3.4a9.6 9.6 0 0 0 4.5-.8 2.9 2.9 0 0 0 1.4-2.7 2.7 2.7 0 0 0-1.4-2.6 9 9 0 0 0-4.2-.7h-1.9a16.6 16.6 0 0 0-1.8 0zM223.9 44.5a14.3 14.3 0 0 1 1-5.4 11.8 11.8 0 0 1 2.4-3.9A10.4 10.4 0 0 1 231 33a11.3 11.3 0 0 1 4.1-.8 10.2 10.2 0 0 1 7.8 3q2.9 3 2.9 8.9v2.4h-15a4.4 4.4 0 0 0 1.9 3.3 7.6 7.6 0 0 0 4.5 1.1 20 20 0 0 0 3.5-.3 14.2 14.2 0 0 0 2.9-.8l.8 5.3a9 9 0 0 1-1.4.5 15.4 15.4 0 0 1-2 .5l-2.3.3a23.2 23.2 0 0 1-2.4.2 14.8 14.8 0 0 1-5.5-1 11 11 0 0 1-3.8-2.5 10.7 10.7 0 0 1-2.3-3.8 15.5 15.5 0 0 1-.7-4.7zm15.4-2.5a6.2 6.2 0 0 0-.3-1.6 3.6 3.6 0 0 0-.7-1.4 3.7 3.7 0 0 0-1.3-1 4 4 0 0 0-2-.4 4.2 4.2 0 0 0-1.8.4 3.7 3.7 0 0 0-1.3 1 4.7 4.7 0 0 0-.9 1.4 10 10 0 0 0-.4 1.6zM248.6 50.5h2.8a10.5 10.5 0 0 0 2-3.7 24.5 24.5 0 0 0 1-4.7 47.7 47.7 0 0 0 .3-5v-4.4h18v17.8h4v12H271v-6.6h-17v6.6h-5.5zm17.6 0V38.1h-5.4l-.2 3.2a24.4 24.4 0 0 1-.4 3.3 23 23 0 0 1-.8 3.1 12.2 12.2 0 0 1-1.2 2.8zM302.2 32.7q-2 6.7-4.1 12.6t-4.7 11.4a24.3 24.3 0 0 1-1.9 3.3 9.8 9.8 0 0 1-2 2.3 6.7 6.7 0 0 1-2.5 1.3 10.5 10.5 0 0 1-3.2.4 12.6 12.6 0 0 1-2.9-.3 11.6 11.6 0 0 1-2.1-.6l1.1-5.2a11.2 11.2 0 0 0 1.8.5 10.2 10.2 0 0 0 1.7 0 3.5 3.5 0 0 0 2.7-1 7.2 7.2 0 0 0 1.6-2.5q-2.2-4.4-4.5-9.9a125.3 125.3 0 0 1-4.2-12.3h7l1 3.8 1.3 4 1.3 4 1.3 3.5 1.2-3.5 1.2-4 1.1-4 1-3.8zM325.8 38.1h-7.5v17.8h-6.5V38.1h-7.4v-5.4h21.3zM339.6 51.3a5.2 5.2 0 0 0 2.8-.6 2.5 2.5 0 0 0 1-2.3 2.4 2.4 0 0 0-1.3-2.2 4.2 4.2 0 0 0-1.4-.5 10.5 10.5 0 0 0-1.7-.1 13.3 13.3 0 0 0-1.5 0l-1.2.3v5.3a12.9 12.9 0 0 0 1.4 0l1.9.1zM336.3 41a8.8 8.8 0 0 1 1.6-.3 17.9 17.9 0 0 1 2.3 0 14.4 14.4 0 0 1 3.8.4 8.9 8.9 0 0 1 3.2 1.5 6.7 6.7 0 0 1 2 2.5 7.8 7.8 0 0 1 .8 3.5 8.2 8.2 0 0 1-.7 3.5 6.5 6.5 0 0 1-2 2.5 9.2 9.2 0 0 1-3.2 1.3 15.7 15.7 0 0 1-4 .5 42.5 42.5 0 0 1-5.4-.3 38 38 0 0 1-5-.9V32.7h6.6zM353.5 44.3a13.8 13.8 0 0 1 .8-4.7 11.3 11.3 0 0 1 2.4-3.9 11.1 11.1 0 0 1 3.7-2.6 12.4 12.4 0 0 1 5-1 15.3 15.3 0 0 1 3.4.3 15.4 15.4 0 0 1 3 1l-1.3 5.2a16.6 16.6 0 0 0-2-.6 10.6 10.6 0 0 0-2.5-.3 5.3 5.3 0 0 0-4.4 1.8 7.5 7.5 0 0 0-1.4 4.8 7.8 7.8 0 0 0 1.3 4.8q1.4 1.8 4.8 1.8a16.1 16.1 0 0 0 2.5-.3 10.8 10.8 0 0 0 2.5-.7l1 5.4a15.4 15.4 0 0 1-3 .9 19 19 0 0 1-3.7.3 14.6 14.6 0 0 1-5.5-1 10.7 10.7 0 0 1-3.8-2.5 10.5 10.5 0 0 1-2.1-3.8 17 17 0 0 1-.7-4.9zM386.3 47.7a41.7 41.7 0 0 0-2.5 4.1l-2.1 4.1h-6.8q1.3-2.9 2.6-5.2a42.4 42.4 0 0 1 2.6-4.1 8.4 8.4 0 0 1-3-2.5 6.4 6.4 0 0 1-1.1-3.8 7 7 0 0 1 2.8-6q2.8-2 7.7-2h2.4q1.3 0 2.7.3l2.5.4a18.7 18.7 0 0 1 2.1.4v22.5h-6.6v-8.2zm3.4-10.3h-1.4l-1.6-.1a4.9 4.9 0 0 0-3.3.8 2.6 2.6 0 0 0-.9 2 2.5 2.5 0 0 0 .4 1.4 3 3 0 0 0 1 1 4.4 4.4 0 0 0 1.2.4 7.7 7.7 0 0 0 1.4 0h3.2zM146.4 89.2H139V107h-6.6V89.2H125v-5.4h21.4zM149.3 95.6a14.3 14.3 0 0 1 1-5.4 11.8 11.8 0 0 1 2.5-3.9 10.4 10.4 0 0 1 3.5-2.3 11.3 11.3 0 0 1 4.2-.8 10.2 10.2 0 0 1 7.8 3q2.8 3 2.8 8.9v1.2l-.1 1.2h-15a4.4 4.4 0 0 0 2 3.3 7.6 7.6 0 0 0 4.5 1.2 20 20 0 0 0 3.5-.4 14.2 14.2 0 0 0 2.9-.8l.9 5.3a9 9 0 0 1-1.4.6 15.4 15.4 0 0 1-2 .4l-2.3.3a23.2 23.2 0 0 1-2.5.2 14.8 14.8 0 0 1-5.5-1 11 11 0 0 1-3.8-2.5 10.7 10.7 0 0 1-2.3-3.8 15.5 15.5 0 0 1-.7-4.7zm15.5-2.6a6.2 6.2 0 0 0-.3-1.6 3.6 3.6 0 0 0-.8-1.4 3.7 3.7 0 0 0-1.3-1 4 4 0 0 0-1.9-.4 4.2 4.2 0 0 0-1.9.4 3.7 3.7 0 0 0-1.3 1 4.7 4.7 0 0 0-.8 1.4 10 10 0 0 0-.4 1.6zM184.8 90.8l4.5-7h6.8L188.2 95q2.6 3.3 4.8 6.5a53 53 0 0 1 3.4 5.6h-7l-.9-1.7-1.2-2-1.4-2.2a23.4 23.4 0 0 0-1.4-2l-1.4 1.9-1.3 2-1.2 2-1 1.9H173a28.6 28.6 0 0 1 1.5-2.6l2-3 2.3-3.3 2.3-3-4-5.6-4-5.6h7.2zM220 107h-6.6v-9.2h-6.9v9.2H200V83.8h6.6v8.6h6.8v-8.6h6.6zM232.7 107H226V83.8h6.6zm.6-29.9A3.6 3.6 0 0 1 232 80a4 4 0 0 1-2.7 1 4.2 4.2 0 0 1-2.8-1 3.7 3.7 0 0 1-1.2-2.9 3.6 3.6 0 0 1 1.2-2.8 4 4 0 0 1 2.8-1 3.9 3.9 0 0 1 2.7 1 3.5 3.5 0 0 1 1.2 2.8zM244.3 83.8v7.5a2.5 2.5 0 0 0 1 2.3 6 6 0 0 0 3 .7h1.3l1.5-.2V83.8h6.6V107H251v-7.7l-2 .3h-1.5a19.6 19.6 0 0 1-4-.3 9.2 9.2 0 0 1-3.2-1.4 6.4 6.4 0 0 1-2-2.6 10 10 0 0 1-.7-4v-7.5zM283.9 107h-6.6v-9.2h-6.8v9.2h-6.6V83.8h6.6v8.6h6.8v-8.6h6.6zM296.6 107H290V83.8h6.6zm.6-29.9A3.6 3.6 0 0 1 296 80a4 4 0 0 1-2.7 1 4.2 4.2 0 0 1-2.8-1 3.7 3.7 0 0 1-1.2-2.9 3.6 3.6 0 0 1 1.2-2.8 4 4 0 0 1 2.8-1 3.9 3.9 0 0 1 2.7 1 3.5 3.5 0 0 1 1.2 2.8zM328.3 95.6a7.8 7.8 0 0 0-1.4-4.9 4.7 4.7 0 0 0-4-1.8 14 14 0 0 0-1.7 0 10.6 10.6 0 0 0-1.2.2v11.8a5.7 5.7 0 0 0 1.5.7 8 8 0 0 0 2 .3q4.8 0 4.8-6.3zm6.6-.2a17 17 0 0 1-.6 4.9 11 11 0 0 1-2 3.8 8.8 8.8 0 0 1-3.1 2.4 10.3 10.3 0 0 1-4.4 1 11.8 11.8 0 0 1-2.6-.4 12.3 12.3 0 0 1-2.3-.7v8.7h-6.5V84.6a20.8 20.8 0 0 1 2-.5l2.4-.4 2.5-.3 2.5-.1a14 14 0 0 1 5.1.9 10.1 10.1 0 0 1 3.8 2.4 10 10 0 0 1 2.4 3.8 14.3 14.3 0 0 1 .9 5zM361.7 95.3a15.3 15.3 0 0 1-.8 5 11.1 11.1 0 0 1-2.3 4 10.4 10.4 0 0 1-3.6 2.4 11.8 11.8 0 0 1-4.7.9 12 12 0 0 1-4.6-.9 10.5 10.5 0 0 1-3.6-2.5 11.7 11.7 0 0 1-2.4-3.8 14.5 14.5 0 0 1-.8-5 14.2 14.2 0 0 1 .9-5 11.8 11.8 0 0 1 2.3-3.9 11 11 0 0 1 3.6-2.4 11.8 11.8 0 0 1 4.6-1 11.6 11.6 0 0 1 4.6 1 10.4 10.4 0 0 1 3.6 2.4 11.2 11.2 0 0 1 2.4 3.9 14.2 14.2 0 0 1 .8 5zm-6.7 0a8 8 0 0 0-1.2-4.7 3.9 3.9 0 0 0-3.5-1.8 4 4 0 0 0-3.5 1.8 8 8 0 0 0-1.2 4.7 8.5 8.5 0 0 0 1.2 4.9 4 4 0 0 0 3.5 1.7 3.9 3.9 0 0 0 3.5-1.7 8.5 8.5 0 0 0 1.2-4.9zM387 78.4a25.6 25.6 0 0 1-3 .4l-3 .5a17.4 17.4 0 0 0-2.7.6 9.7 9.7 0 0 0-2.5 1.2 7.6 7.6 0 0 0-2 2 7.3 7.3 0 0 0-1.1 2.9 12.9 12.9 0 0 1 5.6-1.4 10.7 10.7 0 0 1 3.9.7 8.5 8.5 0 0 1 3.1 2.1 9.6 9.6 0 0 1 2.1 3.6 13.5 13.5 0 0 1 .8 4.8 14 14 0 0 1-.9 5.2 10.6 10.6 0 0 1-2.4 3.7 10 10 0 0 1-3.5 2.2 12.7 12.7 0 0 1-4.3.7q-6.1 0-8.8-3.7t-2.6-11a30.2 30.2 0 0 1 .9-8 14.5 14.5 0 0 1 2.8-5.6 13 13 0 0 1 4.6-3.5 28.8 28.8 0 0 1 6.3-2 25 25 0 0 1 3-.5 28.8 28.8 0 0 0 3-.5zm-14.5 13v2.8a12.8 12.8 0 0 0 1 5.8 3.9 3.9 0 0 0 3.6 2 3.8 3.8 0 0 0 3.3-1.6 7.8 7.8 0 0 0 1.2-4.5 8.3 8.3 0 0 0-.3-2.1 5.3 5.3 0 0 0-.8-1.9 4.5 4.5 0 0 0-1.4-1.2 3.9 3.9 0 0 0-2-.5 12 12 0 0 0-2.4.2 5 5 0 0 0-2.1 1zM415 95.3a15.3 15.3 0 0 1-.8 5 11.1 11.1 0 0 1-2.3 4 10.4 10.4 0 0 1-3.6 2.4 11.8 11.8 0 0 1-4.7.9 12 12 0 0 1-4.6-1 10.5 10.5 0 0 1-3.6-2.4 11.7 11.7 0 0 1-2.4-3.9 14.5 14.5 0 0 1-.8-5 14.2 14.2 0 0 1 .8-5 11.7 11.7 0 0 1 2.4-3.8 11 11 0 0 1 3.6-2.4 11.8 11.8 0 0 1 4.6-1 11.6 11.6 0 0 1 4.6 1 10.4 10.4 0 0 1 3.6 2.4 11.2 11.2 0 0 1 2.3 3.9 14.2 14.2 0 0 1 .9 5zm-6.7 0a8 8 0 0 0-1.3-4.7 3.9 3.9 0 0 0-3.4-1.8 4 4 0 0 0-3.5 1.8 8 8 0 0 0-1.3 4.7 8.5 8.5 0 0 0 1.3 4.9 4 4 0 0 0 3.5 1.7 3.9 3.9 0 0 0 3.4-1.7 8.5 8.5 0 0 0 1.3-4.9zM439.2 89.2h-7.4V107h-6.5V89.2h-7.5v-5.4h21.4zM464.4 83.8V107h-6.7v-4.4l.1-4 .1-3.2.1-2.1-2.6 3.7-2.4 3.6-2.2 3.4-1.8 3h-5.8V83.8h6.6V96.3l4.8-7q2.2-3.2 4.3-5.6z"/><path fill="#183651" d="M360.8 294.3v-.2a22.4 22.4 0 0 0 1.8-2.4 2 2 0 0 0 0-2.2 2.2 2.2 0 0 0-2-1h-13.2l-7-8 7-7.3h13.2a2 2 0 0 0 2.1-2.2 2 2 0 0 0-.1-.8 1.9 1.9 0 0 0-.3-.6 21.6 21.6 0 0 0-35-3.2l-.3.3-.5.6a22 22 0 0 0-2.7 4.4h-58.5a22 22 0 0 0-2.8-4.4l-.2-.3-.6-.7-.8-.8v-.1a21.5 21.5 0 0 0-10.6-5.7h-.2a13.4 13.4 0 0 0-1.4-.2h-.6l-1-.1h-1.6a21.7 21.7 0 0 0-18.7 10.4 2 2 0 0 0 0 2 2.2 2.2 0 0 0 2 1.1h13.1l7.1 7.9-7 7.9h-13.3a2.2 2.2 0 0 0-1.9 1 2 2 0 0 0 0 2.2 21.7 21.7 0 0 0 18.8 10.6h.2a22.3 22.3 0 0 0 19.7-12.6h58.3a22 22 0 0 0 2.8 4.4l.3.4.5.6.9 1a21.5 21.5 0 0 0 12.1 6h3.2a22 22 0 0 0 15.3-6.2l.4-.4.6-.6.9-.8zm-33.4-7.1a2 2 0 0 0-2-1.4H264a2.3 2.3 0 0 0-2 1.4 17.6 17.6 0 0 1-29 5.5h9.7a2.3 2.3 0 0 0 1.5-.6l9-10a2.2 2.2 0 0 0 0-2.9l-9-10a1.6 1.6 0 0 0-1.5-.6H233a17.2 17.2 0 0 1 12.7-5.5 16.5 16.5 0 0 1 16 11.3 2 2 0 0 0 3.2 1h59.6a2.2 2.2 0 0 0 2.8-1.2 17.6 17.6 0 0 1 29.2-5.5h-9.9a2.3 2.3 0 0 0-1.4.6l-9 10a2.2 2.2 0 0 0 0 2.8l9.2 10a1.6 1.6 0 0 0 1.4.7h9.8a17.2 17.2 0 0 1-12.7 5.5 17.5 17.5 0 0 1-16.4-11.1z"/><path fill="#fff" d="M356.6 292.7h-9.8a1.6 1.6 0 0 1-1.5-.6l-9.1-10a2.2 2.2 0 0 1 0-2.8l9-10a2.3 2.3 0 0 1 1.4-.7h9.8a17.6 17.6 0 0 0-29.1 5.6 2.2 2.2 0 0 1-2.9 1.3h-59.6a2 2 0 0 1-3.1-1 16.5 16.5 0 0 0-16-11.4 17.2 17.2 0 0 0-12.7 5.6h9.8a1.6 1.6 0 0 1 1.5.6l8.9 10a2.2 2.2 0 0 1 0 2.9l-9 10a2.3 2.3 0 0 1-1.4.6H233a17.6 17.6 0 0 0 29-5.5 2.3 2.3 0 0 1 2-1.4v-.1h61.3a2 2 0 0 1 2.1 1.5 17.5 17.5 0 0 0 16.4 11 17.2 17.2 0 0 0 12.8-5.6zm-72.6-10h-4.2v-4.2h4.2zm12.8 0h-4.3v-4.2h4.3zm12.7 0h-4.3v-4.2h4.3z"/><path fill="#183651" d="M279.8 278.5h4.3v4.3h-4.3zM292.6 278.5h4.3v4.3h-4.3zM305.3 278.5h4.3v4.3h-4.3z"/><path fill="#fff" d="M289.4 216.7a2.4 2.4 0 0 1-.7-2.4 29.1 29.1 0 0 0 1.7-7.4 2 2 0 0 1 1.5-2l6.4-1.9-1.3-7.6-6.6.4a2.4 2.4 0 0 1-2.1-1.3 30.5 30.5 0 0 0-4-6.5 2 2 0 0 1-.2-2.4l3.1-5.7-6.1-4.5-4.5 4.9a2.4 2.4 0 0 1-2.3.6 29.2 29.2 0 0 0-7.5-1.7 2 2 0 0 1-1.9-1.4l-1.9-6.4-7.7 1.2.5 6.6a2.3 2.3 0 0 1-1.3 2.2 30.5 30.5 0 0 0-6.6 4 2 2 0 0 1-2.4.2l-5.9-3.2-4.2 6.4 4.9 4.4a2.4 2.4 0 0 1 .6 2.3 29.1 29.1 0 0 0-1.7 7.5 2 2 0 0 1-1.5 1.9l-6.4 2 1 7.4 6.7-.5a2.4 2.4 0 0 1 2 1.3 30.5 30.5 0 0 0 4 6.6 2 2 0 0 1 .3 2.3l-3.2 5.8 6.1 4.4 4.5-4.9a6.2 6.2 0 0 1 2-.4 1.6 1.6 0 0 1 .8.2 29.2 29.2 0 0 0 7.4 1.7 2 2 0 0 1 2 1.5l1.8 6.4 7.7-1.3-.4-6.6a2.3 2.3 0 0 1 1.3-2 30.6 30.6 0 0 0 6.6-4 2 2 0 0 1 2.4-.3l5.7 3.2 4.5-6.1z"/><path fill="#183651" d="M302.8 204.1l-2-11.3a2 2 0 0 0-2-1.7l-7.2.4a25.6 25.6 0 0 0-3.1-5l3.4-6.2a2.3 2.3 0 0 0-.6-2.8l-9.4-6.5a2 2 0 0 0-2.8.2l-4.6 5.3a29.8 29.8 0 0 0-6-1.2l-2.1-6.9a2 2 0 0 0-2.4-1.4l-11.3 1.9a2 2 0 0 0-1.7 2l.2 7.3a20.7 20.7 0 0 0-5 3.2l-6.2-3.5a2.3 2.3 0 0 0-2.8.6l-6.5 9.5a2 2 0 0 0 .2 2.8l5.3 4.7a18.4 18.4 0 0 0-1.1 6l-6.8 2a2 2 0 0 0-1.5 2.3l2 11.3a2 2 0 0 0 2 1.7l7.1-.4a20.7 20.7 0 0 0 3.1 5l-3.4 6.2a2.3 2.3 0 0 0 .7 2.9l9.1 6.8a2 2 0 0 0 2.8-.2l4.8-5.4a29.8 29.8 0 0 0 6 1.3l2.1 6.8a2.6 2.6 0 0 0 2 1.4c.2 0 .2 0 .4-.4l11.4-2a2 2 0 0 0 1.7-2l-.5-7.1a20.7 20.7 0 0 0 5.1-3.2l6.2 3.4a2.3 2.3 0 0 0 2.8-.6l6.6-9.4a2 2 0 0 0-.2-2.8l-5.3-4.6a29.8 29.8 0 0 0 1.2-6l6.9-2a2 2 0 0 0 1.4-2.4zm-18.5 20.4a2 2 0 0 0-2.4.3 30.6 30.6 0 0 1-6.6 4 2.3 2.3 0 0 0-1.3 2l.5 6.7-7.7 1.2-1.9-6.3a2 2 0 0 0-2-1.5 29.2 29.2 0 0 1-7.4-1.7 1.6 1.6 0 0 0-.8-.2 6.2 6.2 0 0 0-2 .4l-4.4 4.9-6.2-4.5 3.2-5.7a2 2 0 0 0-.2-2.4 30.5 30.5 0 0 1-4-6.6 2.4 2.4 0 0 0-2.2-1.2l-6.6.4-1-7.5 6.4-1.9a2 2 0 0 0 1.5-1.9 29.1 29.1 0 0 1 1.7-7.4 2.4 2.4 0 0 0-.7-2.4l-4.8-4.4 4.2-6.4 6 3.2a2 2 0 0 0 2.3-.2 30.5 30.5 0 0 1 6.6-4 2.3 2.3 0 0 0 1.3-2.1l-.4-6.6 7.6-1.3 2 6.4a2 2 0 0 0 1.8 1.4 29.2 29.2 0 0 1 7.5 1.8 2.4 2.4 0 0 0 2.3-.7l4.5-4.9 6.2 4.5-3.3 5.7a2 2 0 0 0 .2 2.4 30.5 30.5 0 0 1 4 6.5 2.4 2.4 0 0 0 2.1 1.3l6.6-.4 1.4 7.6-6.4 2a2 2 0 0 0-1.4 2 29.1 29.1 0 0 1-1.8 7.4 2.4 2.4 0 0 0 .7 2.3l5 4.9-4.4 6z"/><path fill="#f5c55f" d="M265 226.8a21.9 21.9 0 1 0-22-21.8 21.9 21.9 0 0 0 22 21.9z"/><path fill="#fff" d="M272.8 203.7a8.2 8.2 0 0 0-7.9-6.6 2.7 2.7 0 0 0-1.3.2 8.2 8.2 0 0 0-5 3.2 7.4 7.4 0 0 0-1.3 6 7.8 7.8 0 0 0 7.8 6.5 2.7 2.7 0 0 0 1.3-.2 8.2 8.2 0 0 0 5-3.2 7.4 7.4 0 0 0 1.4-6z"/><path fill="#183651" d="M277 202.8a12 12 0 0 0-12-10.2 6.6 6.6 0 0 0-2.1.2 12 12 0 0 0-7.9 4.9 12.2 12.2 0 0 0 10 19.3 8 8 0 0 0 2-.2 12 12 0 0 0 8-4.8 11.8 11.8 0 0 0 2-9.2zm-10.6 10a2.7 2.7 0 0 1-1.3.2 7.8 7.8 0 0 1-7.9-6.5 7.4 7.4 0 0 1 1.3-6 8.2 8.2 0 0 1 5.1-3.2 2.7 2.7 0 0 1 1.3-.2 8.2 8.2 0 0 1 7.9 6.6 7.4 7.4 0 0 1-1.3 6 8.2 8.2 0 0 1-5.1 3.1z"/><path fill="#fff" d="M352.3 221.5a19.2 19.2 0 0 0-.8-6 2.4 2.4 0 0 1 .6-2.3l3.8-3-2.8-4.4-4.4 2a2 2 0 0 1-2.3-.5 15.5 15.5 0 0 0-5-3.4 1.9 1.9 0 0 1-1-2.1l.7-5-5.1-1.2-2 4.2a1.9 1.9 0 0 1-1.9 1.3 19.2 19.2 0 0 0-6 .9 2.4 2.4 0 0 1-2.3-.7l-3-3.8-4.5 2.8 2 4.5a2 2 0 0 1-.5 2.3 15.5 15.5 0 0 0-3.3 4.9 1.9 1.9 0 0 1-2.1 1l-5-.6-1 5.3 4.5 1.7a1.9 1.9 0 0 1 1.2 1.9 19.2 19.2 0 0 0 .9 6 2.4 2.4 0 0 1-.7 2.3l-3.8 3 2.8 4.4 4.5-1.9a2 2 0 0 1 2.3.4 15.5 15.5 0 0 0 4.9 3.5 1.9 1.9 0 0 1 1 2.1l-.4 4.7 5.1 1.2 1.7-4.4a1.9 1.9 0 0 1 2-1.3 19.2 19.2 0 0 0 6-.8 2.4 2.4 0 0 1 2.3.6l3 3.8 4.4-2.8-2.1-4.5a2 2 0 0 1 .4-2.3 17.5 17.5 0 0 0 3.4-4.7 1.9 1.9 0 0 1 2.2-1l4.8.6 1.3-5-4.5-1.8a1.9 1.9 0 0 1-1.3-1.9z"/><path fill="#183651" d="M361.3 221.5l-5-1.9a14.7 14.7 0 0 0-.6-4.2l4.3-3.2a2 2 0 0 0 .4-2.8l-4.7-7.7a2.3 2.3 0 0 0-2.8-.8L348 203a13 13 0 0 0-3.4-2.5l.9-5a2.3 2.3 0 0 0-1.7-2.4l-8.7-2.1a2.2 2.2 0 0 0-2.6 1.3l-1.9 4.8a13.7 13.7 0 0 0-4.2.7l-3.2-4.3a2 2 0 0 0-2.8-.4l-7.6 4.6a2.3 2.3 0 0 0-.9 2.9l2.1 4.9a13 13 0 0 0-2.5 3.4l-5.3-.7a2.3 2.3 0 0 0-2.4 1.7l-2.1 8.7a2 2 0 0 0 1.5 2.4l4.9 1.9a13.7 13.7 0 0 0 .6 4.2l-4.2 3.2a2 2 0 0 0-.4 2.8l4.7 7.7a2.3 2.3 0 0 0 2.8.8l4.9-2a13 13 0 0 0 3.4 2.5l-.7 5.3a2.3 2.3 0 0 0 1.7 2.3l8.8 2.1h.4a2.1 2.1 0 0 0 1.9-1.3l1.7-4.9a13.7 13.7 0 0 0 4.2-.6l3.2 4.2a2 2 0 0 0 2.9.4l7.6-4.6a2.3 2.3 0 0 0 .9-2.9l-2.3-4.9a13 13 0 0 0 2.6-3.4l5.3.7a2.3 2.3 0 0 0 2.3-1.7l2.2-8.7a2.2 2.2 0 0 0-1.3-2.6zm-4.5 8.7l-4.9-.6a1.9 1.9 0 0 0-2.1 1 17.5 17.5 0 0 1-3.4 4.7 2 2 0 0 0-.4 2.3l2.1 4.5-4.5 2.8-3-3.8a2.4 2.4 0 0 0-2.3-.7 19.2 19.2 0 0 1-6 .9 1.9 1.9 0 0 0-2 1.3l-1.6 4.4-5-1.3.4-4.7a1.9 1.9 0 0 0-1-2.1 15.5 15.5 0 0 1-5-3.4 2 2 0 0 0-2.3-.4l-4.5 2-2.8-4.5 3.8-3a2.4 2.4 0 0 0 .7-2.4 19.2 19.2 0 0 1-.9-6 1.9 1.9 0 0 0-1.3-1.8l-4.4-1.7 1.1-5.4 4.9.7a1.9 1.9 0 0 0 2.2-1 15.5 15.5 0 0 1 3.4-5 2 2 0 0 0 .4-2.3l-2-4.5 4.6-2.8 3 3.8a2.4 2.4 0 0 0 2.3.7 19.2 19.2 0 0 1 6-.9 1.9 1.9 0 0 0 2-1.2l1.8-4.3 5.1 1.3-.6 4.9a1.9 1.9 0 0 0 1 2.1 15.5 15.5 0 0 1 5 3.4 2 2 0 0 0 2.3.4l4.4-1.9 2.9 4.5-4 3a2.4 2.4 0 0 0-.7 2.3 19.2 19.2 0 0 1 .9 6 1.9 1.9 0 0 0 1.3 1.9l4.4 1.7z"/><path fill="#f2c35e" d="M332.1 237.5a16.1 16.1 0 1 0-16.2-16.2 16.1 16.1 0 0 0 16.2 16.2z"/><path fill="#fff" d="M333.6 215.6l-1.5-.2a5.8 5.8 0 1 0 5.8 7.2 5.7 5.7 0 0 0-4-7z"/><path fill="#183651" d="M334.7 211.6a8 8 0 0 0-2.4-.3 10 10 0 0 0-9.8 7.7 10.2 10.2 0 0 0 7.5 12.1 8 8 0 0 0 2.4.2 10.4 10.4 0 0 0 9.7-7.6 10.2 10.2 0 0 0-7.4-12.1zm3.2 11a5.8 5.8 0 1 1-5.8-7.3l1.5.2a5.7 5.7 0 0 1 4.3 6.7v.4z"/></svg>