<svg width="28" height="36" viewBox="0 0 28 36" fill="none" xmlns="http://www.w3.org/2000/svg">
<path d="M14 0.5C10.3545 0.504136 6.85958 1.95412 4.28185 4.53185C1.70412 7.10958 0.254136 10.6045 0.25 14.25C0.25 26.0156 12.75 34.9016 13.2828 35.2734C13.493 35.4207 13.7434 35.4996 14 35.4996C14.2566 35.4996 14.507 35.4207 14.7172 35.2734C15.25 34.9016 27.75 26.0156 27.75 14.25C27.7459 10.6045 26.2959 7.10958 23.7182 4.53185C21.1404 1.95412 17.6455 0.504136 14 0.5Z" fill="#5AA932"/>
<path fill-rule="evenodd" clip-rule="evenodd" d="M9.75389 18.6988C12.0991 18.6988 14.0002 16.7071 14.0002 14.2503C14.0002 11.7934 12.0991 9.80176 9.75389 9.80176C7.40871 9.80176 5.50757 11.7934 5.50757 14.2503C5.50757 16.7071 7.40871 18.6988 9.75389 18.6988ZM9.75389 17.0812C11.2057 17.0812 12.3826 15.8137 12.3826 14.2503C12.3826 12.6868 11.2057 11.4194 9.75389 11.4194C8.30211 11.4194 7.12522 12.6868 7.12522 14.2503C7.12522 15.8137 8.30211 17.0812 9.75389 17.0812Z" fill="white"/>
<path d="M15.6179 9.80176H17.2355V13.0371L20.4708 9.80176H22.4929L18.8532 13.8459L22.4929 18.6988H20.4708L17.2355 15.0591V18.6988H15.6179V9.80176Z" fill="white"/>
</svg>
