<svg xmlns="http://www.w3.org/2000/svg" width="105" height="40" viewBox="0 0 105 40"><path d="m40.68,20c0,11.05-9.11,20-20.34,20S0,31.05,0,20,9.11,0,20.34,0s20.34,8.95,20.34,20Z" fill="#af2a32"/><path d="m14.06,26.47c3.47,0,6.28-2.9,6.28-6.47s-2.81-6.47-6.28-6.47-6.28,2.9-6.28,6.47,2.81,6.47,6.28,6.47Zm0-2.35c2.15,0,3.89-1.84,3.89-4.12s-1.74-4.12-3.89-4.12-3.89,1.84-3.89,4.12,1.74,4.12,3.89,4.12Z" fill="#fff" fill-rule="evenodd" /><path d="m22.74,13.53h2.39v4.71l4.79-4.71h2.99l-5.38,5.88,5.38,7.06h-2.99l-4.79-5.29v5.29h-2.39v-12.94Z" fill="#fff"/><path d="m55.79,19.85v.58c0,.93-.13,1.76-.38,2.49s-.62,1.36-1.08,1.88c-.47.51-1.02.91-1.67,1.18-.64.27-1.35.41-2.14.41s-1.49-.14-2.14-.41c-.64-.27-1.2-.67-1.67-1.18-.47-.52-.84-1.15-1.1-1.88-.26-.74-.38-1.57-.38-2.49v-.58c0-.93.13-1.76.38-2.49.26-.74.62-1.36,1.08-1.88.47-.52,1.03-.92,1.67-1.19.65-.27,1.36-.41,2.14-.41s1.5.14,2.14.41c.65.27,1.2.67,1.67,1.19.47.52.83,1.15,1.09,1.88.26.73.39,1.56.39,2.49Zm-2.58.58v-.59c0-.65-.06-1.22-.18-1.71-.12-.49-.3-.9-.53-1.24-.23-.33-.52-.59-.85-.75-.34-.17-.72-.26-1.15-.26s-.81.09-1.15.26c-.33.17-.61.42-.84.75-.23.33-.4.75-.52,1.24-.12.49-.18,1.06-.18,1.71v.59c0,.64.06,1.21.18,1.71.12.49.3.91.53,1.25.23.33.52.59.85.76s.72.26,1.15.26.81-.09,1.15-.26.62-.43.84-.76c.23-.34.4-.76.52-1.25.12-.5.18-1.07.18-1.71Z" fill="#fff"/><path d="m83.43,14.04v12.19h-2.56l-4.98-8.17v8.17h-2.56v-12.19h2.56l4.99,8.18v-8.18h2.55Z" fill="#fff" /><path d="m71.16,26.23v-9.06h-2.46v9.06h2.46Z" fill="#fff" fill-rule="evenodd" /><path d="m68.54,14.81c0-.35.12-.64.37-.87.25-.23.58-.34,1.01-.34s.75.11,1,.34c.26.23.38.52.38.87s-.13.64-.38.87c-.25.23-.58.34-1,.34s-.76-.11-1.01-.34-.37-.52-.37-.87Z" fill="#af2a32" /><path d="m60.19,26.23h-2.56v-12.19h2.56v5.58l1.13-1.52,3.16-4.06h3.13l-4.4,5.39,4.52,6.8h-3.02l-3.19-4.92-1.33,1.41v3.51Z" fill="#fff" /><path d="m93.98,24.27v1.96h-8.32v-12.19h8.31v1.97h-5.76v3h4.91v1.91h-4.91v3.36h5.77Z" fill="#fff" /><path d="m101.18,26.23h-2.55v-10.22h-3.76v-1.97h10.12v1.97h-3.82v10.22Z" fill="#fff" /></svg>