<svg xmlns="http://www.w3.org/2000/svg" width="130" height="50" viewBox="0 0 130 50"><ellipse cx="25.19" cy="25" rx="25.19" ry="25" fill="#af2a32" /><path d="m17.41,33.09c4.3,0,7.78-3.62,7.78-8.09s-3.48-8.09-7.78-8.09-7.78,3.62-7.78,8.09,3.48,8.09,7.78,8.09Zm0-2.94c2.66,0,4.81-2.3,4.81-5.15s-2.16-5.15-4.81-5.15-4.81,2.3-4.81,5.15,2.16,5.15,4.81,5.15Z" fill="#fff" fill-rule="evenodd" /><path d="m28.15,16.91h2.96v5.88l5.93-5.88h3.7l-6.67,7.35,6.67,8.82h-3.7l-5.93-6.62v6.62h-2.96v-16.18Z" fill="#fff" /><path d="m69.08,24.82v.72c0,1.16-.16,2.2-.47,3.12-.32.92-.76,1.71-1.34,2.35-.58.64-1.27,1.13-2.07,1.48-.79.34-1.68.51-2.65.51s-1.85-.17-2.65-.51c-.79-.34-1.48-.83-2.07-1.48-.58-.65-1.04-1.43-1.36-2.35-.32-.92-.47-1.96-.47-3.12v-.72c0-1.17.16-2.2.47-3.12.32-.92.76-1.71,1.34-2.35.58-.65,1.27-1.14,2.07-1.49.8-.34,1.68-.51,2.65-.51s1.85.17,2.65.51c.8.34,1.49.84,2.07,1.49.58.65,1.03,1.43,1.35,2.35.32.91.49,1.95.49,3.12Zm-3.2.72v-.74c0-.81-.07-1.52-.22-2.13-.15-.61-.37-1.13-.65-1.55-.29-.42-.64-.73-1.05-.94-.41-.22-.89-.32-1.42-.32s-1.01.11-1.42.32c-.41.21-.76.52-1.04.94-.28.42-.5.93-.64,1.55-.15.61-.22,1.33-.22,2.13v.74c0,.8.07,1.51.22,2.13.15.61.37,1.13.65,1.56.29.42.64.74,1.05.95.41.22.89.32,1.42.32s1.01-.11,1.42-.32c.41-.22.76-.53,1.04-.95.28-.43.5-.95.64-1.56.15-.62.22-1.33.22-2.13Z" fill="#333" /><path d="m103.3,17.55v15.24h-3.16l-6.17-10.21v10.21h-3.16v-15.24h3.16l6.18,10.22v-10.22h3.15Z" fill="#333" /><path d="m88.1,32.79v-11.32h-3.05v11.32h3.05Z" fill="#333" fill-rule="evenodd" /><path d="m84.86,18.52c0-.44.15-.8.46-1.09.31-.29.72-.43,1.24-.43s.92.14,1.23.43c.32.29.47.65.47,1.09s-.16.8-.47,1.09c-.31.29-.72.43-1.23.43s-.94-.14-1.24-.43c-.31-.29-.46-.65-.46-1.09Z" fill="#af2a32" /><path d="m74.52,32.79h-3.16v-15.24h3.16v6.98l1.4-1.91,3.91-5.08h3.88l-5.45,6.74,5.6,8.49h-3.74l-3.95-6.15-1.65,1.76v4.39Z" fill="#333" /><path d="m116.35,30.34v2.45h-10.3v-15.24h10.29v2.46h-7.13v3.75h6.08v2.39h-6.08v4.2h7.14Z" fill="#333" /><path d="m125.28,32.79h-3.15v-12.78h-4.65v-2.46h12.53v2.46h-4.72v12.78Z" fill="#333" /></svg>