<svg xmlns="http://www.w3.org/2000/svg" width="2667.9" height="560.6" viewBox="0 0 2667.9 560.6"><path fill="none" d="M1184.4 84.8c-13.7-9.3-32.6-15.8-68.7-15.8h-52.6v190.6h73.8c6.2 0 85-12.3 84.9-98.2a92.3 92.3 0 0 0-37.4-76.6zM1399 314.6h160.7l-81.5-230.8-79.2 230.8zM681.9 66.4c-109.6 0-142.4 95.5-142.6 185.5v1c0 90.3 17.9 188.5 142.6 188.5 108.6 0 143.3-81.4 143.3-188.5v-1c-.1-90-19.1-185.5-143.3-185.5z"/><path fill="#76a62d" d="M1504 18.2h-31.8a26.4 26.4 0 0 0-2.9-.2h-10.2a26.4 26.4 0 0 0-2.9.2c-10.6 1.6-15.9 12.2-19.9 24.6l-157 438.7a10.5 10.5 0 0 0 10.5 10.5h32.8c13 0 19.7-10.7 23.6-23.6l31.3-91.4a15.6 15.6 0 0 1 14.8-10.5h174.6a15.6 15.6 0 0 1 14.7 10.4l32.6 92.4c4 12.9 11 23.6 24.6 23.6h34.3a10.7 10.7 0 0 0 11-10.5L1527.1 43c-4.5-13.2-10.4-24.4-23.1-25zm-105 296.4l79.2-230.8 81.5 230.8zM1986.1 19.4c-4.2-1.6-28.5-1.4-28.5-1.4-16.3.4-26.7 0-34 10a31.6 31.6 0 0 0-2.7 4.8l-97.3 210.5-100.2-210.4a31.7 31.7 0 0 0-2.7-4.7c-7.3-10.1-17.7-9.8-34-10.1 0 0-24.3-.2-28.5 1.4-10 3.8-3.4 16 1.3 26.2l122.9 245.2a80.4 80.4 0 0 1 8.5 36v148A18.1 18.1 0 0 0 1809 493h25.7a18.1 18.1 0 0 0 18.1-18.1V327.6a80.4 80.4 0 0 1 8.5-36l123.4-246c4.8-10.1 11.4-22.4 1.4-26.2zM2160.9 1.3a5.4 5.4 0 0 0-7.4.4L2109.9 47l240.9 201.3-240.9 201.3 43.6 45.4a5.4 5.4 0 0 0 7.4.4l295-247.1z"/><path fill="#76a62d" d="M2372.9 3.3a5.4 5.4 0 0 0-7.4.4L2321.9 49l240.9 201.3-240.9 201.3 43.6 45.4a5.4 5.4 0 0 0 7.4.4l295-247.1zM361.1 17.7h-37.2a14 14 0 0 0-14 14v445.5a14.8 14.8 0 0 0 14.8 14.8h35.8a14.8 14.8 0 0 0 14.8-14.8V31.8a14.2 14.2 0 0 0-14.2-14.1zM228 435.5H61.9V31.8a14 14 0 0 0-14-14H14a14 14 0 0 0-14 14v440.7A16.6 16.6 0 0 0 16.6 489h211.5a14.3 14.3 0 0 0 14.4-14.4v-24.8a14.6 14.6 0 0 0-14.5-14.4zM1230.6 43.9c-20.7-14-49.3-24-104-24h-105.9a22.9 22.9 0 0 0-22.9 23v425.6a23.6 23.6 0 0 0 23.6 23.6h18.2a23.6 23.6 0 0 0 23.6-23.6v-160h95.4c9.3 0 128.7-18.6 128.7-148.6-.1-56.6-29.1-97.2-56.7-116zm-93.7 215.7h-73.8V69h52.6c36.1 0 55 6.5 68.7 15.8a92.2 92.2 0 0 1 37.4 76.6c.1 85.9-78.7 98.2-84.9 98.2zM937.3 502.6a37 37 0 0 0-8.6-4.5c-24.6-9.4-60.5-34.3-80.5-47.2-15.5-10-13.1-18-11-21.2l1.3-1.6.1-.1c34-41.7 53.7-101.1 53.7-176.1 0-132.6-56.7-240.1-210.6-240.1-141.6 0-209.6 107.5-209.6 240S517.8 498 681.7 498c33.3 0 63.9-6.4 90.8-18.8h.1c7.9-3.4 15.6-3.3 26.2 4.4 76 56.3 113.7 77 140.7 77 13 0 10.7-40 10.7-40s-1.9-10.1-12.9-18zM825.2 252.9c0 107-34.7 188.5-143.3 188.5-124.7 0-142.6-98.2-142.6-188.5v-1c.2-90 33-185.5 142.6-185.5 124.2 0 143.2 95.5 143.3 185.5z"/></svg>