<svg xmlns="http://www.w3.org/2000/svg" width="168.4" height="34.8" viewBox="0 0 168.4 34.8"><path fill="none" d="M112.2 26.4c0 1.3 1.6 1.5 2.5 1.5a3.3 3.3 0 0 0 3.5-3.2v-.9a10.3 10.3 0 0 1-3.2.7c-1 .2-2.8.4-2.8 2zM21.8 23.9h2.4V6.2H6.3v2.4c8.9 1 14.4 6.6 15.5 15.3zM101.2 20.9c0-1-1.2-1.3-2.6-1.3h-2.5v2.5h2.5c.8 0 2.6 0 2.6-1.2zM99 24.6h-3v2.8h3c2.4 0 2.8-.7 2.8-1.3 0-.9-.5-1.5-2.8-1.5zM64 19.1c-1.4 0-3.7.7-3.7 4.4 0 2.3 1 4.4 3.7 4.4s3.7-2.1 3.7-4.4c0-3.7-2.3-4.4-3.7-4.4zM162.4 22.9v-6.6l-4.4 6.6h4.4zM91.3 17"/><path fill="#74b027" d="M34.6 30.4h5.2V15.9H48v14.5h5.2v-18H34.6v18zM123.4 19.6h5.3v10.5h4.8V19.6h5.2V17h-15.3v2.6zM122.8 27.4v-6c0-1.5 0-5-7.2-5-1.7 0-7.3.2-7.5 4.8h4.5c0-2 2.1-2 3-2 .5 0 2.5 0 2.5 1.6v.4c0 1.3-1.3 1-4.8 1.5-3 .4-6 1-6 4 0 1.1.5 3.9 5.6 3.9a7.6 7.6 0 0 0 5.3-1.8h.1l.4 1.3h5v-.3c-.9-.1-1-1-.9-2.4zm-4.6-2.7a3.3 3.3 0 0 1-3.5 3.2c-.9 0-2.5-.2-2.5-1.5 0-1.5 1.8-1.7 2.8-1.9a10.3 10.3 0 0 0 3.2-.7zM102.8 23.3c1.8-.3 3.3-1.4 3.3-3.2 0-3.1-3.8-3.1-5.3-3.1h-9.5v13h9.5c3.5 0 5.8-.6 5.8-3.3 0-2-1.1-3-3.8-3.4zm-6.7-3.7h2.6c1.3 0 2.5.2 2.5 1.3S99.3 22 98.6 22H96zm3 7.8h-3v-2.8H99c2.3 0 2.7.6 2.7 1.5 0 .6-.3 1.3-2.6 1.3zM65.4 16.5a7 7 0 0 0-5.1 2h-.1V17h-4.5v17.8h4.8v-6a7 7 0 0 0 4.8 1.8c4.6 0 7.4-2.9 7.4-7 0-4.4-2.8-7.1-7.3-7.1zM64 27.9c-2.8 0-3.7-2.1-3.7-4.4 0-3.7 2.3-4.4 3.7-4.4s3.7.7 3.7 4.4c0 2.3-1 4.4-3.7 4.4zM84.5 24.3c0 1-.2 3.6-3.2 3.6-1.8 0-2.7-.7-2.7-3.3V17h-4.8v8.2c0 1.6.2 5.4 5.3 5.4a7.2 7.2 0 0 0 5.4-2V30h4.7V17h-4.7z"/><path fill="#363636" d="M0 18.3h11.9v11.8H0z"/><path fill="#74b027" d="M0 14.7h3.2c8.3 0 12.5 4.1 12.5 12.3v3.1h14.8V0H0zm6.3-8.5h18V24h-2.5c-1-8.7-6.6-14.2-15.5-15.3z"/><path fill="#363636" d="M148.3 23.4a23.6 23.6 0 0 0 2.4-2.5 10.1 10.1 0 0 0 1.5-2.4 6.7 6.7 0 0 0 .5-2.5A5 5 0 0 0 151 12a6.3 6.3 0 0 0-4.5-1.5 7 7 0 0 0-4.3 1.3 6 6 0 0 0-2.1 4.4l3.7.4a3.6 3.6 0 0 1 .8-2.3 2.8 2.8 0 0 1 3.6 0 2.6 2.6 0 0 1 .7 1.9 4 4 0 0 1-.8 2.3 26.2 26.2 0 0 1-3 3.1 24.6 24.6 0 0 0-4.2 4.6 9 9 0 0 0-1.3 3.7h13v-3.4h-7.3a6.5 6.5 0 0 1 .8-1q.4-.6 2.2-2.2zM166 22.9V10.6h-3.1l-8.4 12.3V26h8V30h3.5v-3.9h2.4v-3.3zm-3.6 0H158l4.4-6.6z"/></svg>