<svg xmlns="http://www.w3.org/2000/svg" width="800" height="1027.5" viewBox="0 0 800 1027.5"><path fill="#0774bb" d="M602.6 868.4c0-7.8-3.8-11.7-11.6-11.8q-23.5-.2-47 0c-7.4 0-12.7 3.9-15.2 10.8-1.7 4.5-3.1 9-4.7 13.6l-29.2 84.4c-.4 1.1-1.2 2.1-2.5 4.2l-8.3-23.1-27.8-79.6c-2.2-6.5-7-10.2-13.9-10.3q-24.5-.2-49 0c-6.6.1-10 3.7-10.3 10.3l-.1 5.5c0 46 .1 92-.1 138 0 7.3 1 13.4 8 17h27c7.1-3 9-8.6 8.8-16-.3-34.9-.1-69.7-.1-104.5v-6l1.2-.4a34.1 34.1 0 0 1 2.2 4.4l34.4 96.3c1.5 4.3 3.2 8.4 4.6 12.7 2 6.8 6.9 10.7 13 13.6h21c10.8-3.4 13.2-13 16.5-22L555.7 904a5.4 5.4 0 0 1 3-3c.1 2 .4 4 .4 6.1 0 34.6.2 69.2-.1 103.8 0 7.2 1.1 13.1 8 16.6h27c5-2.8 8.7-6 8.7-12.7V868.4zM689.4 889c31.4.2 63 0 94.4.3 7.3 0 13-1.7 16.2-8.8v-16c-3.7-7-9.8-8.1-17.1-8-42.7.2-85.4 0-128 0-12 0-14.9 3-14.9 14.7 0 46.8.1 93.6-.1 140.5 0 7.5 1.9 13 9 15.8h141c8.3-5.2 12-18.4 7.8-27.4-2-4.2-5.4-5.6-9.7-5.5h-31.5c-22.1 0-44.3-.2-66.5 0-5 0-6.7-1.4-6.5-6.5.4-8.1.4-16.3 0-24.5-.2-5 1.8-6.1 6.4-6.1h79.4a55.5 55.5 0 0 0 6-.1c5.5-.6 8.8-4 9.2-9.5.2-3.3 0-6.6 0-10 0-9.1-3.7-13-13-13H689c-4 .2-5.6-1-5.5-5.2.3-8.3.3-16.7 0-25-.1-4.5 1.6-5.6 5.9-5.6zM350.9 856.7c-7-.4-14-.2-21 0a22 22 0 0 0-19.3 10.5l-35.3 54.5c-1.2 1.8-2.7 3.5-4.3 5.6-1.4-1.9-2.3-3-3.1-4.3l-35.3-54.5c-4-6-9-10.9-16.2-11.5-9.4-.7-19-.4-28.4-.3-4 0-5.2 2.8-4.5 6.3a14.9 14.9 0 0 0 2.4 4.9c20.2 31.5 40.6 62.9 60.8 94.5a16.8 16.8 0 0 1 2.4 8.3c.3 13.4.4 26.7 0 40-.2 7.2 1 13.2 7.9 16.8h28c7-3.5 8.2-9.4 8-16.6-.5-12.7-.5-25.4 0-38a25.5 25.5 0 0 1 3.4-12c9.7-15.6 19.8-30.9 29.7-46.3 10.2-15.8 20.5-31.6 30.5-47.5 1.4-2.2 2.4-5.8 1.4-7.7s-4.6-2.6-7.1-2.7zM170.3 859.2a20.1 20.1 0 0 0-10.3-2.5c-47.6-.2-95.2 0-142.8-.3-7.3 0-13.5 1-17.2 8.1v16c3.1 7.1 9 8.9 16.2 8.7 14.7-.3 29.3 0 44-.1 4.1 0 5.3 1.4 5.3 5.4-.1 39 0 77.8-.2 116.8 0 7.5 1.9 12.9 8.7 16.2h27c6.8-3 8.2-8.4 8.1-15.4-.2-38.5-.1-77-.1-115.4 0-7.6 0-7.6 7.8-7.6 14.6 0 29.3.2 44-.1a19 19 0 0 0 9.8-2.7c5.2-3.5 5-23.7-.3-27.1z"/><path fill="#f8981d" d="M390 0C184.8 0 28.5 166.3 28.5 371.5a370 370 0 0 0 38.4 164.6l37.3-85.2 85.7 9.3a227.3 227.3 0 0 1-17.9-88.7 228 228 0 1 1 228 228 227 227 0 0 1-101.9-24L195 584.9l-17 84.4A369.9 369.9 0 0 0 400 743c205.2 0 371.5-166.3 371.5-371.5S595.2 0 390 0z"/><path fill="#0774bb" d="M197.4 476.1l-83.9-9.1-37.7 86a373.2 373.2 0 0 0 89 106l17.7-88 93-8.5a229 229 0 0 1-78.1-86.4z"/></svg>