<svg xmlns="http://www.w3.org/2000/svg" width="112" height="42" viewBox="0 0 112 42"><path fill="#181818" d="M22.6 3.7v34.5l18.6 3.6V0zM0 42l18.5-3.7V3.7L0 0z"/><path fill="none" d="M71 19.2a3.1 3.1 0 0 0-1.9.4 1.6 1.6 0 0 0-.4 1.3v4.4a1.5 1.5 0 0 0 .4 1.2 5 5 0 0 0 3.8 0 1.4 1.4 0 0 0 .4-1.2v-4.4a1.7 1.7 0 0 0-.4-1.3 3.1 3.1 0 0 0-1.9-.4zm13.7 0a3.1 3.1 0 0 0-1.8.4 1.6 1.6 0 0 0-.5 1.3v4.4a1.5 1.5 0 0 0 .5 1.2 3.3 3.3 0 0 0 1.8.4 3.2 3.2 0 0 0 1.9-.4 1.4 1.4 0 0 0 .4-1.2v-4.4a1.7 1.7 0 0 0-.5-1.3 3.1 3.1 0 0 0-1.8-.4zm-26.4-2.7a6.3 6.3 0 0 0-2.7-.5h-2.8v10.2h2.7a8.8 8.8 0 0 0 2.9-.4 1.4 1.4 0 0 0 .8-1.5V18a1.6 1.6 0 0 0-1-1.6z"/><path fill="#fff" d="M61.1 14.4a11.5 11.5 0 0 0-5.5-1h-6.4v15.4h6.5q4 0 5.5-1c1-.5 1.6-1.7 1.6-3.5v-6.2c0-1.8-.6-3.1-1.7-3.7zm-2 10c0 .8-.2 1.3-.7 1.5a8.8 8.8 0 0 1-3 .3h-2.6V16h2.8a6.3 6.3 0 0 1 2.7.4 1.6 1.6 0 0 1 .9 1.6zM75.5 18a3.8 3.8 0 0 0-1.3-.6 7.5 7.5 0 0 0-1.5-.4 20.1 20.1 0 0 0-3.2 0 7.5 7.5 0 0 0-1.5.4 3.5 3.5 0 0 0-1.4.6 3.5 3.5 0 0 0-.9 1.3 5.2 5.2 0 0 0-.3 2v3.4a4.6 4.6 0 0 0 .3 2 3.2 3.2 0 0 0 .8 1.2 3.7 3.7 0 0 0 1.4.7 10.3 10.3 0 0 0 1.5.3 16.4 16.4 0 0 0 1.7 0h1.7a7.3 7.3 0 0 0 1.5-.4 3.7 3.7 0 0 0 1.3-.6 3.5 3.5 0 0 0 .8-1.2 4.6 4.6 0 0 0 .4-2v-3.3a5 5 0 0 0-.4-2 3.5 3.5 0 0 0-.9-1.3zm-2.1 7.2a1.4 1.4 0 0 1-.5 1.2 5 5 0 0 1-3.7 0 1.5 1.5 0 0 1-.5-1.2v-4.4a1.6 1.6 0 0 1 .5-1.3 4.7 4.7 0 0 1 3.7 0 1.7 1.7 0 0 1 .5 1.3zm16-7.2a3.8 3.8 0 0 0-1.5-.6 7.5 7.5 0 0 0-1.5-.4 20.1 20.1 0 0 0-3.2 0 7.5 7.5 0 0 0-1.5.4 3.2 3.2 0 0 0-2.3 1.9 5.2 5.2 0 0 0-.3 2v3.4a4.6 4.6 0 0 0 .4 2 3.1 3.1 0 0 0 2.2 1.8 10.3 10.3 0 0 0 1.5.3 16.4 16.4 0 0 0 1.7 0h1.6a7.3 7.3 0 0 0 1.5-.3 3.7 3.7 0 0 0 1.3-.6 3.5 3.5 0 0 0 .9-1.2 4.6 4.6 0 0 0 .3-2v-3.3a5.6 5.6 0 0 0-.3-2 3.5 3.5 0 0 0-.9-1.4zM87 25.3a1.4 1.4 0 0 1-.5 1.2 3.2 3.2 0 0 1-1.8.4 3.3 3.3 0 0 1-1.9-.4 1.5 1.5 0 0 1-.4-1.2v-4.4a1.6 1.6 0 0 1 .4-1.3 4.7 4.7 0 0 1 3.7 0 1.7 1.7 0 0 1 .5 1.3zm10.3-7.5a2 2 0 0 0-1 1.5v-2H93v11.5h3.4v-7a1.6 1.6 0 0 1 .7-1.4 4 4 0 0 1 2.1-.4h1.1v-3h-1.2a3.2 3.2 0 0 0-2 .8zm10.6 3.8h-1.5a1.4 1.4 0 0 1-1-.3.6.6 0 0 1-.2-.5v-.6a.8.8 0 0 1 .4-.8 4.8 4.8 0 0 1 1.7-.2l4.1.3v-2.2a35.4 35.4 0 0 0-4-.2 11.6 11.6 0 0 0-4 .6 2.2 2.2 0 0 0-1.6 2.1v1.4a2.5 2.5 0 0 0 1 2.2 4.6 4.6 0 0 0 2.8.7h1.5a2.1 2.1 0 0 1 1.3.3 1 1 0 0 1 .3.8v.7a.8.8 0 0 1-.6.8 4.8 4.8 0 0 1-1.5.2 33.8 33.8 0 0 1-4.5-.5v2.3a32.9 32.9 0 0 0 4.4.3h1.7a8.2 8.2 0 0 0 1.4-.3 3.6 3.6 0 0 0 1.3-.5 2.7 2.7 0 0 0 .8-1 3 3 0 0 0 .3-1.5v-1.4c0-1.8-1.4-2.7-4.1-2.7z"/><path fill="none" d="M52.2 34a4 4 0 0 0-.7 0 2 2 0 0 0-.5.2 1 1 0 0 0-.4.3 1.1 1.1 0 0 0-.1.6v3c0 .7.5 1.1 1.7 1.1s1.7-.3 1.7-1v-3c0-.8-.5-1.2-1.7-1.2zm25.3 1.8a2.2 2.2 0 0 0-1-.2 2 2 0 0 0-1 .2c-.1 0-.2.3-.2.8v1.9a2 2 0 0 0 0 .5.5.5 0 0 0 .3.3 1.1 1.1 0 0 0 .4 0 10 10 0 0 0 1.1 0 1.6 1.6 0 0 0 .4 0 .5.5 0 0 0 .3-.3 4 4 0 0 0 0-.5v-2c0-.4 0-.6-.3-.7zm32-.2a1.7 1.7 0 0 0-.9.2.8.8 0 0 0-.2.6v2.1a.7.7 0 0 0 .3.7 4.5 4.5 0 0 0 1.9 0l.2-.6v-2.2a.7.7 0 0 0-.2-.6 2 2 0 0 0-1-.2z"/><path fill="#adadad" d="M52.2 33.4c-1.8 0-2.6.6-2.6 1.8v3c0 1.2.8 1.7 2.6 1.7a5 5 0 0 0 .9 0 4.1 4.1 0 0 0 .8-.3 1.4 1.4 0 0 0 .7-.5 1.6 1.6 0 0 0 .2-.9v-3c0-1.2-.8-1.8-2.6-1.8zm1.7 4.8c0 .7-.6 1.1-1.7 1s-1.8-.3-1.8-1v-3a1.1 1.1 0 0 1 .2-.6 1 1 0 0 1 .4-.4 2 2 0 0 1 .5-.1 4 4 0 0 1 .7 0c1.1 0 1.7.4 1.7 1.2zm6.5.5a.5.5 0 0 1-.2.5 2.8 2.8 0 0 1-1 .1 1.7 1.7 0 0 1-.6 0 .5.5 0 0 1-.3-.2.8.8 0 0 1 0-.3 1.5 1.5 0 0 1 0-.3v-3.4h-1v3.5a1.4 1.4 0 0 0 .4 1 1.8 1.8 0 0 0 1.3.3q1.3 0 1.5-.7v.6h.8v-4.7h-.8zm5 .5a1 1 0 0 1-.2-.7v-2.8h1.6v-.6h-1.6v-1.4h-1V35h-1v.6h1v2.8a1.6 1.6 0 0 0 .4 1.1 1.8 1.8 0 0 0 1.2.3 6.2 6.2 0 0 0 1 0v-.6h-.7a1.2 1.2 0 0 1-.8 0zm5.4-2.2h-.5q-.9 0-.9-.5v-.4a.5.5 0 0 1 .3-.4 2 2 0 0 1 1-.2 8.4 8.4 0 0 1 1.3.2V35h-1.4c-1.3 0-2 .4-2 1.1v.4a1 1 0 0 0 .4.9 1.7 1.7 0 0 0 1 .3h.6a1.3 1.3 0 0 1 .7.1.5.5 0 0 1 .2.5v.5a.5.5 0 0 1-.3.4 2.4 2.4 0 0 1-.9.1 11 11 0 0 1-1.6-.1v.6a11.4 11.4 0 0 0 1.6.1 3.1 3.1 0 0 0 1.5-.3 1 1 0 0 0 .5-1v-.4c0-.8-.5-1.1-1.5-1.2zm7.5-1.6a.9.9 0 0 0-.5-.2 2.7 2.7 0 0 0-.5-.2h-1.5a2.7 2.7 0 0 0-.5.1 1.1 1.1 0 0 0-.5.3 1.5 1.5 0 0 0-.3.5 2.3 2.3 0 0 0-.1.8v1.7a2.3 2.3 0 0 0 .1.9 1 1 0 0 0 .5.4 2.5 2.5 0 0 0 .7.2h1.6a2.7 2.7 0 0 0 .6 0 3.8 3.8 0 0 0 .7-.8 2 2 0 0 0 0-.8v-1.6a2.3 2.3 0 0 0 0-.8 1.5 1.5 0 0 0-.3-.5zm-.5 3a4 4 0 0 1 0 .6.5.5 0 0 1-.3.3h-.3a10 10 0 0 1-1.2 0 1.1 1.1 0 0 1-.4 0 .5.5 0 0 1-.2-.3 2 2 0 0 1 0-.5v-2c0-.4 0-.6.2-.7a2 2 0 0 1 1-.2 2.2 2.2 0 0 1 1 .2c.1 0 .2.3.2.8zm6.5.3a.5.5 0 0 1-.3.5 2.8 2.8 0 0 1-1 .1 1.7 1.7 0 0 1-.5 0 .5.5 0 0 1-.3-.2.6.6 0 0 1-.2-.3.8.8 0 0 1 0-.3v-3.4h-.8v3.5a1.3 1.3 0 0 0 .3 1 1.8 1.8 0 0 0 1.3.3q1.4 0 1.5-.7v.6h.9v-4.7h-.9zm4.7-3.4a.8.8 0 0 0-.4.6v-.8h-.8V40h.8v-3.4a.6.6 0 0 1 .3-.6 1.7 1.7 0 0 1 .9-.1h.5V35h-.4a1.6 1.6 0 0 0-.9.3zm4 3.9a.8.8 0 0 1-.2-.7v-2a1 1 0 0 1 .3-.7 1.7 1.7 0 0 1 .9-.2 5.7 5.7 0 0 1 1.4.2v-.6a6.2 6.2 0 0 0-1.3-.2 5.8 5.8 0 0 0-.6 0l-.5.1a1 1 0 0 0-.4.2 1.8 1.8 0 0 0-.4.2 1 1 0 0 0-.2.5 2.8 2.8 0 0 0 0 .7v1.7a2 2 0 0 0 0 .7 1.2 1.2 0 0 0 .3.5.9.9 0 0 0 .5.2 4.2 4.2 0 0 0 .5.1h.7a6.7 6.7 0 0 0 1.4-.1V39a6.2 6.2 0 0 1-1.4.2 1.9 1.9 0 0 1-1-.1zm4.7-5.8h.8v1h-.8zm0 1.7h.8v4.7h-.8zm5.8-.1q-1.3 0-1.5.7V35h-.8v4.7h.8v-3.4a.7.7 0 0 1 .3-.6 2 2 0 0 1 1-.2 1.7 1.7 0 0 1 .5 0 1 1 0 0 1 .4.5 1.5 1.5 0 0 1 0 .3v3.4h.9v-3.4a1.3 1.3 0 0 0-.4-1 1.8 1.8 0 0 0-1.2-.4zM110.9 35.6q-.3-.6-1.5-.6a2.3 2.3 0 0 0-1.4.4 1.5 1.5 0 0 0-.5 1.2v2a1.4 1.4 0 0 0 .4 1 2.4 2.4 0 0 0 1.5.4 3 3 0 0 0 1-.2c.3 0 .4-.2.4-.5v1.2a.8.8 0 0 1-.3.7 1.8 1.8 0 0 1-1 .2 14 14 0 0 1-1.6-.2v.7a8.6 8.6 0 0 0 1.6 0 3.2 3.2 0 0 0 1.6-.3 1.5 1.5 0 0 0 .6-1.3v-5.1h-.9zm0 3a.6.6 0 0 1-.3.6 2.6 2.6 0 0 1-2 0 .7.7 0 0 1-.1-.6v-2.2a.8.8 0 0 1 .2-.6 1.7 1.7 0 0 1 .9-.2 2 2 0 0 1 1 .2.7.7 0 0 1 .2.6z"/><path fill="#fff" d="M8.4 13.2h2.8v15.5H8.4zm17.2 2.3h4.3v13.2h2.8V15.5H37v-2.3H25.6z"/></svg>