<svg xmlns="http://www.w3.org/2000/svg" width="32" height="32" viewBox="0 0 32 32"><rect width="32" height="32" fill="#f5c55f"/><path d="M13.88,29h4.25V27.44c0-2.9,2.43-3.9,4.51-1.82l1,1,3-3-1-1c-2.21-2.21-1.17-4.77,1.82-4.59l1.56.09V13.88L27.44,14c-3,.17-4-2.38-1.86-4.64l1-1.08L23.76,5.38l-1.08,1C20.42,8.59,18,7.59,18,4.56V3H14V4.56c0,3-2.6,4.12-4.72,1.91l-1-1.08L5.38,8.24l1,1.08c2.08,2.12,1,4.38-1.95,4.55L3,14V18l1.47.09c2.95.17,4,2.43,1.91,4.51l-1,1,2.9,2.95,1.13-1.08c2.08-2,4.77-1,4.59,1.91ZM16,20.25A4.37,4.37,0,0,1,11.75,16,4.33,4.33,0,0,1,16,11.8,4.33,4.33,0,0,1,20.25,16,4.31,4.31,0,0,1,16,20.25Z" fill="#fff"/></svg>