<svg xmlns="http://www.w3.org/2000/svg" width="38" height="48" viewBox="0 0 38 48"><path d="M7.26,16.62H30.79v17c0,2.74-2.08,4.11-5.46,4.57v7.14a2.65,2.65,0,1,1-5.29,0v-7H17.9v7a2.62,2.62,0,1,1-5.24,0v-7.2c-2.87-.57-5.4-2.28-5.4-4.51ZM24.88,4.45l3.94-4A1.08,1.08,0,0,1,30.34,2L26.91,5.48c3.38,2.06,5.57,5.83,4,9.82H7.43c-1.75-4.4,1.13-8.45,5-10.39l-3-3A1.08,1.08,0,1,1,11,.34l3.66,3.71A16.15,16.15,0,0,1,24.88,4.45ZM38,15.42V30.89a2.65,2.65,0,1,1-5.29,0V15.42A2.65,2.65,0,1,1,38,15.42Zm-32.76,0V30.89a2.62,2.62,0,1,1-5.24,0V15.42A2.62,2.62,0,1,1,5.24,15.42Z" fill="#5aa932"/></svg>