<svg xmlns="http://www.w3.org/2000/svg" width="590" height="330" viewBox="0 0 590 330"><rect width="590" height="330" fill="#fff"/><path d="M393.43,293.62a.72.72,0,0,0-.71-1.09l-.39,0v2.82A18.49,18.49,0,0,0,393.43,293.62Z" fill="none"/><path d="M192.8,284.19a.77.77,0,0,0-.63-1.09.75.75,0,0,1-.47-1.25,28.15,28.15,0,0,0,2.19-2.73h-1.49V271h32.32v-5.84H192.41v-8.1h32.32v-5.77H192.41v-8.1h41.18V240h16.08V207.37H185.19v77.1l6.14,2.2C191.86,285.85,192.35,285,192.8,284.19Zm-.39-68.72h49.65v8.1H192.41Zm0,13.87h49.65v8.1H192.41Z" fill="#cdde40"/><polygon points="209.12 311.85 203.08 311.85 203.08 316.99 211.62 316.99 211.62 311.85 209.12 311.85" fill="#cdde40"/><path d="M217.66,293.62a20,20,0,0,0,7.06,7.25V293h-7A.71.71,0,0,0,217.66,293.62Z" fill="#cdde40"/><path d="M203.7,303.67q.33.54.67,1.06.34-.52.67-1.06a.77.77,0,1,0-1.33,0Z" fill="#cdde40"/><path d="M221.51,302.5a.77.77,0,0,0-.71,1.17,26.73,26.73,0,0,0,3.92,5.11v-6.35h0A14.66,14.66,0,0,1,221.51,302.5Z" fill="#cdde40"/><path d="M204.37,298.41a19.58,19.58,0,0,0,3.8-4.79.7.7,0,0,0,.06-.62h-1a.87.87,0,0,1,0,.23l0,0a2.15,2.15,0,0,1,.11.66,2.19,2.19,0,0,1-4.16,1v2.2Q203.69,297.78,204.37,298.41Z" fill="#cdde40"/><path d="M199.47,283.1a.77.77,0,0,0-.63,1.09l.39.7H209.5l.39-.7a.77.77,0,0,0-.63-1.09.75.75,0,0,1-.47-1.25,28.16,28.16,0,0,0,2.19-2.73H197.75a28.15,28.15,0,0,0,2.19,2.73A.75.75,0,0,1,199.47,283.1Z" fill="#cdde40"/><rect x="214.37" y="311.85" width="10.35" height="5.14" fill="#cdde40"/><path d="M217,281.85a.75.75,0,0,1-.47,1.25.77.77,0,0,0-.63,1.09l.39.7h8.39v-5.77h-9.88A28.15,28.15,0,0,0,217,281.85Z" fill="#cdde40"/><rect x="192.41" y="215.47" width="49.65" height="8.1" fill="#7ea800"/><rect x="192.41" y="229.34" width="49.65" height="8.1" fill="#7ea800"/><rect x="192.41" y="243.21" width="32.32" height="8.1" fill="#7ea800"/><rect x="192.41" y="257.08" width="32.32" height="8.1" fill="#7ea800"/><path d="M192.41,279.13h1.49a18.85,18.85,0,0,0,1.26-2,.75.75,0,0,1,1.33,0,18.87,18.87,0,0,0,1.26,2H211a18.78,18.78,0,0,0,1.26-2,.75.75,0,0,1,1.33,0,18.85,18.85,0,0,0,1.26,2h9.88V271H192.41Z" fill="#7ea800"/><path d="M221.35,291a.72.72,0,0,1-.31,1.33,10.33,10.33,0,0,1-2.67.23.78.78,0,0,0-.69.47h7v-8.1h-8.39A18.13,18.13,0,0,0,221.35,291Z" fill="#7ea800"/><path d="M207.47,292.53l-.4,0a.81.81,0,0,1,.11.48h1A.79.79,0,0,0,207.47,292.53Z" fill="#7ea800"/><path d="M204.25,291a.78.78,0,0,1,.12.11.76.76,0,0,1,.12-.11,18.14,18.14,0,0,0,5-6.08H199.23A18.14,18.14,0,0,0,204.25,291Z" fill="#7ea800"/><rect x="192.41" y="204.8" width="49.65" height="2.57" fill="#c2c2c2"/><path d="M327.64,271h10.63l.72-5.84H320.57v-8.1H340l0-.39h37.81V193.5H313.35v77.44h14.27Zm-7.07-69.49h49.65v8.1H320.57Zm0,13.95h49.65v8.1H320.57Zm0,13.87h49.65v8.1H320.57Zm0,13.87h49.65v8.1H320.57Z" fill="#004860"/><path d="M338.92,284.19l.16.28v-1.12A.72.72,0,0,0,338.92,284.19Z" fill="#004860"/><path d="M330.45,292.53h-.21a2.14,2.14,0,0,1-1.51,1.73V297a19.13,19.13,0,0,0,2.43-3.39A.72.72,0,0,0,330.45,292.53Z" fill="#004860"/><path d="M332.26,283.1a.75.75,0,0,1-.47-1.25,28.15,28.15,0,0,0,2.19-2.73h-5.32l1.21,9.62a26.72,26.72,0,0,0,3-4.56A.77.77,0,0,0,332.26,283.1Z" fill="#004860"/><path d="M338,279.44q.48.67,1,1.32V280l-.23-.06A2.18,2.18,0,0,1,338,279.44Z" fill="#004860"/><rect x="328.73" y="311.85" width="5.96" height="5.14" fill="#004860"/><rect x="337.43" y="311.85" width="1.65" height="5.14" fill="#004860"/><rect x="320.57" y="201.53" width="49.65" height="8.1" fill="#002738"/><rect x="320.57" y="215.47" width="49.65" height="8.1" fill="#002738"/><rect x="320.57" y="229.34" width="49.65" height="8.1" fill="#002738"/><rect x="320.57" y="243.21" width="49.65" height="8.1" fill="#002738"/><polygon points="320.57 257.08 320.57 265.18 338.98 265.18 339.97 257.08 320.57 257.08" fill="#002738"/><path d="M335.24,277.1a.75.75,0,0,1,1.33,0,18.39,18.39,0,0,0,1,1.67,2.15,2.15,0,0,1-.1-1.43l.78-6.32H327.64l1,8.1H334A18.87,18.87,0,0,0,335.24,277.1Z" fill="#002738"/><polygon points="347 190.23 347 193.43 358.69 193.43 358.69 187.66 332.96 187.66 332.96 193.43 344.65 193.43 344.65 190.23 347 190.23" fill="#0d6b8a"/><polygon points="360.33 187.66 360.33 185.71 330.84 185.71 330.84 187.66 332.96 187.66 358.69 187.66 360.33 187.66" fill="#c2c2c2"/><polygon points="347 193.43 347 190.23 344.65 190.23 344.65 193.43 344.65 193.5 347 193.5 347 193.43" fill="#002738"/><polygon points="284.33 169.74 285.98 169.74 285.98 172.62 295.47 172.62 295.47 164.29 291.86 164.29 278.53 164.29 274.84 164.29 274.84 172.62 284.33 172.62 284.33 169.74" fill="#85dedb"/><path d="M291.86,155.87H278.53v8.41h13.33ZM286,164.21h-1.65v-2.88H286Z" fill="#c3e4e3"/><path d="M273.9,237h5v5H276.1v1.25H285v2.49h2.59v5H285v3.66h2.59v5H285v3.74h2.59v5H285v2.88h15V172.62h-30.2V240h4.08Zm13.73,5h-5v-5h5Zm0-8.65h-5v-5h5Zm0-8.65h-5v-5h5Zm0-8.73h-5v-5h5Zm0-8.65h-5v-5h5Zm0-8.73h-5v-5h5Zm0-8.65h-5v-5h5Zm0-8.65h-5v-5h5Zm8.79,86.79h-5v-5h5Zm0-8.73h-5v-5h5Zm0-8.65h-5v-5h5Zm0-8.72h-5v-5h5Zm0-8.65h-5v-5h5Zm0-8.65h-5v-5h5Zm0-8.73h-5v-5h5Zm0-8.65h-5v-5h5Zm0-8.73h-5v-5h5Zm0-8.65h-5v-5h5Zm0-8.65h-5v-5h5Zm-22.51-5h5v5h-5Zm0,8.65h5v5h-5Zm0,8.65h5v5h-5Zm0,8.73h5v5h-5Zm0,8.65h5v5h-5Zm0,8.73h5v5h-5Zm0,8.65h5v5h-5Z" fill="#69e2de"/><rect x="273.9" y="176.29" width="5.02" height="4.99" fill="#00bec5"/><rect x="282.61" y="176.29" width="5.02" height="4.99" fill="#00bec5"/><rect x="291.39" y="176.29" width="5.02" height="4.99" fill="#00bec5"/><rect x="273.9" y="184.93" width="5.02" height="4.99" fill="#00bec5"/><rect x="282.61" y="184.93" width="5.02" height="4.99" fill="#00bec5"/><rect x="291.39" y="184.93" width="5.02" height="4.99" fill="#00bec5"/><rect x="273.9" y="193.58" width="5.02" height="4.99" fill="#00bec5"/><rect x="282.61" y="193.58" width="5.02" height="4.99" fill="#00bec5"/><rect x="291.39" y="193.58" width="5.02" height="4.99" fill="#00bec5"/><rect x="273.9" y="202.31" width="5.02" height="4.99" fill="#00bec5"/><rect x="282.61" y="202.31" width="5.02" height="4.99" fill="#00bec5"/><rect x="291.39" y="202.31" width="5.02" height="4.99" fill="#00bec5"/><rect x="273.9" y="210.96" width="5.02" height="4.99" fill="#00bec5"/><rect x="282.61" y="210.96" width="5.02" height="4.99" fill="#00bec5"/><rect x="291.39" y="210.96" width="5.02" height="4.99" fill="#00bec5"/><rect x="273.9" y="219.68" width="5.02" height="4.99" fill="#00bec5"/><rect x="282.61" y="219.68" width="5.02" height="4.99" fill="#00bec5"/><rect x="291.39" y="219.68" width="5.02" height="4.99" fill="#00bec5"/><rect x="273.9" y="228.33" width="5.02" height="4.99" fill="#00bec5"/><rect x="282.61" y="228.33" width="5.02" height="4.99" fill="#00bec5"/><rect x="291.39" y="228.33" width="5.02" height="4.99" fill="#00bec5"/><polygon points="278.92 236.98 273.9 236.98 273.9 240.02 276.1 240.02 276.1 241.96 278.92 241.96 278.92 236.98" fill="#00bec5"/><rect x="282.61" y="236.98" width="5.02" height="4.99" fill="#00bec5"/><rect x="291.39" y="236.98" width="5.02" height="4.99" fill="#00bec5"/><rect x="285.04" y="245.7" width="2.59" height="4.99" fill="#00bec5"/><rect x="291.39" y="245.7" width="5.02" height="4.99" fill="#00bec5"/><rect x="285.04" y="254.35" width="2.59" height="4.99" fill="#00bec5"/><rect x="291.39" y="254.35" width="5.02" height="4.99" fill="#00bec5"/><rect x="285.04" y="263.08" width="2.59" height="4.99" fill="#00bec5"/><rect x="291.39" y="263.08" width="5.02" height="4.99" fill="#00bec5"/><rect x="284.33" y="169.74" width="1.65" height="2.88" fill="#00bec5"/><rect x="284.33" y="161.33" width="1.65" height="2.88" fill="#00bec5"/><path d="M203.08,297.1v2.43c.45-.35.88-.73,1.29-1.11Q203.69,297.78,203.08,297.1Z" fill="#4a9524"/><path d="M203.7,303.67a.77.77,0,0,1,.67-1.16h0c-.43,0-.84,0-1.25,0v4c.44-.57.88-1.17,1.29-1.81Q204,304.21,203.7,303.67Z" fill="#4a9524"/><path d="M204.37,291.08a.78.78,0,0,0-.12-.11,18.14,18.14,0,0,1-5-6.08l-.39-.7a.77.77,0,0,1,.63-1.09.75.75,0,0,0,.47-1.25,28.15,28.15,0,0,1-2.19-2.73,18.87,18.87,0,0,1-1.26-2,.75.75,0,0,0-1.33,0,18.85,18.85,0,0,1-1.26,2,28.15,28.15,0,0,1-2.19,2.73.75.75,0,0,0,.47,1.25.77.77,0,0,1,.63,1.09c-.45.82-.94,1.66-1.47,2.48l6.71,2.4a2.17,2.17,0,0,1,.51.18l3.26,1.17a2.18,2.18,0,0,1,.41.15l2,.72A.69.69,0,0,1,204.37,291.08Z" fill="#4a9524"/><path d="M337.59,278.77a18.39,18.39,0,0,1-1-1.67.75.75,0,0,0-1.33,0,18.87,18.87,0,0,1-1.26,2,28.15,28.15,0,0,1-2.19,2.73.75.75,0,0,0,.47,1.25.77.77,0,0,1,.63,1.09,26.72,26.72,0,0,1-3,4.56l.43,3.39h0a2.14,2.14,0,0,1,0,.38h.21a.72.72,0,0,1,.71,1.09,19.13,19.13,0,0,1-2.43,3.39v14.84h10.35V284.47l-.16-.28a.72.72,0,0,1,.16-.84v-2.58q-.55-.66-1-1.32A2.18,2.18,0,0,1,337.59,278.77Z" fill="#63ab3c"/><rect x="334.69" y="311.85" width="2.75" height="5.14" fill="#e9a178"/><path d="M217.66,293.62a.71.71,0,0,1,0-.62.78.78,0,0,1,.69-.47,10.33,10.33,0,0,0,2.67-.23.72.72,0,0,0,.31-1.33,18.13,18.13,0,0,1-5-6.08l-.39-.7a.77.77,0,0,1,.63-1.09.75.75,0,0,0,.47-1.25,28.15,28.15,0,0,1-2.19-2.73,18.85,18.85,0,0,1-1.26-2,.75.75,0,0,0-1.33,0,18.78,18.78,0,0,1-1.26,2,28.16,28.16,0,0,1-2.19,2.73.75.75,0,0,0,.47,1.25.77.77,0,0,1,.63,1.09l-.39.7a18.14,18.14,0,0,1-5,6.08.76.76,0,0,0-.12.11.69.69,0,0,0-.14.21l2.37.85a.86.86,0,0,1,.47.37l.4,0a.79.79,0,0,1,.77.47.7.7,0,0,1-.06.62,19.58,19.58,0,0,1-3.8,4.79c-.42.39-.84.76-1.29,1.11v3c.41,0,.83,0,1.25,0h0a.77.77,0,0,1,.67,1.16q-.33.54-.67,1.06c-.42.63-.85,1.24-1.29,1.81v5.31h21.65v-3.07a26.73,26.73,0,0,1-3.92-5.11.77.77,0,0,1,.71-1.17,14.66,14.66,0,0,0,3.21-.08h0v-1.55A20,20,0,0,1,217.66,293.62Z" fill="#5aa932"/><rect x="211.62" y="311.85" width="2.74" height="5.14" fill="#e9a178"/><path d="M398.06,294.73a2.2,2.2,0,0,1-4.23-.8,2.15,2.15,0,0,1,.27-1,.84.84,0,0,1,.59-.77l.23-.08a2.18,2.18,0,0,1,.76-.27l3-1.06a2.19,2.19,0,0,1,1-.35l2.69-1a2.19,2.19,0,0,1,1-.36l.88-.31a26.74,26.74,0,0,1-3-4.54.77.77,0,0,1,.63-1.09.75.75,0,0,0,.47-1.25,23.47,23.47,0,0,1-3.45-4.75.75.75,0,0,0-1.33,0,23.47,23.47,0,0,1-3.45,4.75.75.75,0,0,0,.47,1.25.77.77,0,0,1,.63,1.09,27.68,27.68,0,0,1-2.82,4.33v4l.39,0a.72.72,0,0,1,.71,1.09,18.49,18.49,0,0,1-1.1,1.72v16.51h5.73Z" fill="#5a9e44"/><rect x="396.89" y="311.85" width="1.18" height="5.14" fill="#e9a178"/><path d="M259.74,284.27h9.09l0-.08a.77.77,0,0,0-.63-1.09.75.75,0,0,1-.47-1.25c.31-.34.59-.67.88-1H257.19A18.14,18.14,0,0,0,259.74,284.27Z" fill="#ea6745"/><path d="M263.06,298.68c.2-.18.39-.36.58-.55h-1C262.75,298.32,262.9,298.5,263.06,298.68Z" fill="#ea6745"/><path d="M250.06,317v-4.67h-6.67a.69.69,0,0,1-.39-1.25,22.06,22.06,0,0,0,5.65-6.23.65.65,0,0,0-.63-1,13.38,13.38,0,0,1-3.06-.08.66.66,0,0,1-.24-1.25,19.39,19.39,0,0,0,5.27-4.36H231.94V284.27h20.9a18.17,18.17,0,0,0,2.56-3.43H231.94V267h45.73v4H285V243.21H224.72V317h25.33ZM231.94,249.6h45.73v13.87H231.94Z" fill="#ea6745"/><path d="M275.19,280.9v-.06h-.06Z" fill="#ea6745"/><path d="M270.69,311.85h-.87a.74.74,0,0,1-.7.47h-9.57V317h11.14Z" fill="#ea6745"/><rect x="273.43" y="311.85" width="2.04" height="5.14" fill="#ea6745"/><polygon points="233.59 243.21 242.06 243.21 276.1 243.21 276.1 241.96 276.1 240.02 273.9 240.02 269.82 240.02 249.66 240.02 233.59 240.02 233.59 243.21" fill="#c2c2c2"/><rect x="257.59" y="312.32" width="1.96" height="4.67" fill="#74537a"/><rect x="250.06" y="312.32" width="4.94" height="4.67" fill="#74537a"/><rect x="231.94" y="249.6" width="45.73" height="13.87" fill="#f1a187"/><path d="M257,280.45c.07.13.15.26.23.39h11.47a21.54,21.54,0,0,0,2.57-3.74.75.75,0,0,1,1.33,0,21.56,21.56,0,0,0,2.57,3.74h.06l1.21-9.89h1.26v-4H231.94v13.87H255.4c.07-.13.16-.26.23-.39A.81.81,0,0,1,257,280.45Z" fill="#f1a187"/><path d="M260.25,284.81a.7.7,0,0,1-.47,1.17.67.67,0,0,0-.55,1,18.55,18.55,0,0,0,5.18,6.23.68.68,0,0,1-.31,1.25,14.53,14.53,0,0,1-2.59.23.67.67,0,0,0-.63,1,16.7,16.7,0,0,0,1.71,2.42h1a19.5,19.5,0,0,0,3.52-4.52.72.72,0,0,0-.71-1.09,14.82,14.82,0,0,1-2.67-.23.74.74,0,0,1-.31-1.33,19.25,19.25,0,0,0,5.37-6.7h-9.09C259.91,284.45,260.07,284.63,260.25,284.81Z" fill="#f1a187"/><path d="M251.08,294.71a14.53,14.53,0,0,1-2.59-.23.7.7,0,0,1-.31-1.25,17.83,17.83,0,0,0,5.18-6.23.7.7,0,0,0-.55-1,.7.7,0,0,1-.47-1.17c.18-.18.34-.36.51-.54h-20.9v13.87H250a16.73,16.73,0,0,0,1.71-2.42A.69.69,0,0,0,251.08,294.71Z" fill="#f1a187"/><path d="M147.78,296.11a2.19,2.19,0,0,1-2.2-2.18,2.15,2.15,0,0,1,.21-.91.83.83,0,0,1,.58-.88l.46-.16a2.17,2.17,0,0,1,.46-.17l3-1.08a2.19,2.19,0,0,1,1-.36l.63-.23a21.7,21.7,0,0,1-4.39-6,.77.77,0,0,1,.63-1.09.75.75,0,0,0,.47-1.25,23.5,23.5,0,0,1-3.45-4.75.75.75,0,0,0-1.33,0,23.46,23.46,0,0,1-3.45,4.75.75.75,0,0,0,.47,1.25.77.77,0,0,1,.63,1.09,19.41,19.41,0,0,1-5.41,6.78.74.74,0,0,0,.31,1.33,14.76,14.76,0,0,0,2.67.23.72.72,0,0,1,.71,1.09,20.05,20.05,0,0,1-7.29,7.4.75.75,0,0,0,.23,1.4,14.79,14.79,0,0,0,3.22.08.78.78,0,0,1,.71,1.17,24.65,24.65,0,0,1-5.88,6.86.75.75,0,0,0,.47,1.32h18.51v-17A2.19,2.19,0,0,1,147.78,296.11Z" fill="#5aa932"/><rect x="143.23" y="311.85" width="2.75" height="5.14" fill="#e9a178"/><path d="M258.45,311.85a.75.75,0,0,1-.31-1.32,24.65,24.65,0,0,0,5.88-6.86.77.77,0,0,0-.71-1.17,14.79,14.79,0,0,1-3.22-.08.75.75,0,0,1-.23-1.4,20.05,20.05,0,0,0,3.2-2.33c-.16-.18-.31-.36-.47-.55a16.7,16.7,0,0,1-1.71-2.42.67.67,0,0,1,.63-1,14.53,14.53,0,0,0,2.59-.23.68.68,0,0,0,.31-1.25,18.55,18.55,0,0,1-5.18-6.23.67.67,0,0,1,.55-1,.7.7,0,0,0,.47-1.17c-.18-.18-.34-.36-.51-.54a18.14,18.14,0,0,1-2.56-3.43c-.07-.13-.16-.26-.23-.39a.81.81,0,0,0-1.33,0c-.07.13-.15.26-.23.39a18.17,18.17,0,0,1-2.56,3.43c-.17.18-.33.36-.51.54a.7.7,0,0,0,.47,1.17.7.7,0,0,1,.55,1,17.83,17.83,0,0,1-5.18,6.23.7.7,0,0,0,.31,1.25,14.53,14.53,0,0,0,2.59.23.69.69,0,0,1,.63,1,16.73,16.73,0,0,1-1.71,2.42,19.39,19.39,0,0,1-5.27,4.36.66.66,0,0,0,.24,1.25,13.38,13.38,0,0,0,3.06.08.65.65,0,0,1,.63,1,22.06,22.06,0,0,1-5.65,6.23.69.69,0,0,0,.39,1.25h25.73a.74.74,0,0,0,.7-.47Z" fill="#4a9524"/><polygon points="257.59 312.31 255 312.31 255 316.99 255 316.99 257.59 316.99 257.59 316.99 257.59 312.31" fill="#e9a178"/><path d="M449.59,294.71a2.19,2.19,0,0,0-3.69-1.33,2.19,2.19,0,0,0-3.84-1.32,2.19,2.19,0,0,0-3.84-1.32,2.19,2.19,0,0,0-3.77-1.4,2.19,2.19,0,0,0-3.69-1.33,2.19,2.19,0,0,1-2.2-2.18s0-.05,0-.08v0a4.08,4.08,0,0,1-7.63.15l-.06-.07a10.49,10.49,0,0,0-5.88,3.48,2.19,2.19,0,0,0-3.77,1.4,2.19,2.19,0,0,0-3.84,1.32,2.19,2.19,0,0,0-3.84,1.32,2.19,2.19,0,0,0-3.69,1.33,2.19,2.19,0,0,1-1.65-.76,2.15,2.15,0,0,1-.15.78V317H451.4v-22.1a2.15,2.15,0,0,1-.22-.86A2.19,2.19,0,0,1,449.59,294.71ZM413.43,311H402V299.61h11.45Zm11.3-19.79a2.18,2.18,0,1,1-2.2,2.18A2.19,2.19,0,0,1,424.73,291.2ZM429.44,317h-9.49V302.27h9.49Zm18-6H435.95V299.61H447.4Z" fill="#004860"/><path d="M455.44,293.27l0,0a.84.84,0,0,0-.55-1.09l-4.39-1.57a2.18,2.18,0,0,0-.42-.15l-3.24-1.16a2.17,2.17,0,0,0-.52-.19l-21.23-7.6a.86.86,0,0,0-.63,0l-2.26.81a2.18,2.18,0,0,0-.87.31l-3.08,1.1a2.17,2.17,0,0,0-.62.22l-3.08,1.1a2.17,2.17,0,0,0-.58.21l-7,2.52a2.17,2.17,0,0,0-.56.2l-2.21.79-.88.31a2.19,2.19,0,0,0-1,.36l-2.69,1a2.19,2.19,0,0,0-1,.35l-3,1.06a2.18,2.18,0,0,0-.76.27l-.23.08a.84.84,0,0,0-.59.77,2.15,2.15,0,0,0-.27,1,2.2,2.2,0,0,0,4.23.8,2.15,2.15,0,0,0,.15-.78,4.27,4.27,0,0,1,5.34-.57,2.19,2.19,0,0,1,3.84-1.32,2.19,2.19,0,0,1,3.84-1.32,2.19,2.19,0,0,1,3.77-1.4,2.19,2.19,0,0,1,3.69-1.33,2.19,2.19,0,0,0,2.19-2.16l.06.07a4.08,4.08,0,0,0,7.63-.15v0s0,.05,0,.08a10.67,10.67,0,0,1,5.88,3.51,2.19,2.19,0,0,1,3.77,1.4,2.19,2.19,0,0,1,3.84,1.32,2.19,2.19,0,0,1,3.84,1.32,2.19,2.19,0,0,1,3.69,1.33,2.19,2.19,0,0,0,1.58-.67,2.15,2.15,0,0,0,.22.86,2.19,2.19,0,0,0,4.16-1A2.15,2.15,0,0,0,455.44,293.27Z" fill="#002738"/><ellipse cx="424.73" cy="293.38" rx="2.2" ry="2.18" fill="#002738"/><rect x="419.95" y="302.27" width="9.49" height="14.72" fill="#002738"/><rect x="401.98" y="299.61" width="11.45" height="11.38" fill="#002738"/><rect x="435.95" y="299.61" width="11.45" height="11.38" fill="#002738"/><path d="M203.08,306.54V294.89a2.14,2.14,0,0,1-.22-.86,2.19,2.19,0,0,1-3.75-1.26,2.19,2.19,0,0,1-3.7-1.48,2.19,2.19,0,0,1-3.84-1.32,2.18,2.18,0,0,1-3.84-1.31A2.19,2.19,0,0,1,184,287.4a2.19,2.19,0,0,1-3.71-1.55l-.06.07a4.09,4.09,0,0,1-7.58,0l-.06-.07a2.19,2.19,0,0,1-3.71,1.55,2.19,2.19,0,0,1-3.75,1.26,2.18,2.18,0,0,1-3.84,1.31,2.19,2.19,0,0,1-3.84,1.32,2.19,2.19,0,0,1-3.7,1.48A2.19,2.19,0,0,1,150,294a2.14,2.14,0,0,1-.22.86V317h53.33V306.54ZM165.19,311H153.74V299.62h11.45Zm33.88-11.38V311H187.63V299.61Zm-22.67-8.41a2.18,2.18,0,1,1-2.2,2.18A2.19,2.19,0,0,1,176.41,291.2ZM181.19,317H171.7V302.27h9.49Z" fill="#ffa033"/><path d="M150.31,290.73l-3,1.08a2.17,2.17,0,0,0-.46.17l-.46.16a.83.83,0,0,0-.58.88,2.15,2.15,0,0,0-.21.91,2.19,2.19,0,0,0,4.16,1A2.14,2.14,0,0,0,150,294a2.19,2.19,0,0,0,3.75-1.26,2.19,2.19,0,0,0,3.7-1.48,2.19,2.19,0,0,0,3.84-1.32,2.18,2.18,0,0,0,3.84-1.31,2.19,2.19,0,0,0,3.75-1.26,2.19,2.19,0,0,0,3.71-1.55l.06.07a4.09,4.09,0,0,0,7.58,0l.06-.07A2.19,2.19,0,0,0,184,287.4a2.19,2.19,0,0,0,3.75,1.26,2.18,2.18,0,0,0,3.84,1.31,2.19,2.19,0,0,0,3.84,1.32,2.19,2.19,0,0,0,3.7,1.48,2.19,2.19,0,0,0,3.75,1.26,2.14,2.14,0,0,0,.22.86,2.19,2.19,0,0,0,4.16-1,2.15,2.15,0,0,0-.11-.66l0,0a.87.87,0,0,0,0-.23.81.81,0,0,0-.11-.48.86.86,0,0,0-.47-.37l-2.37-.85-2-.72a2.18,2.18,0,0,0-.41-.15l-3.26-1.17a2.17,2.17,0,0,0-.51-.18l-6.71-2.4-6.14-2.2-5.72-2h0l-2.63-.94a.86.86,0,0,0-.63,0l-2.26.81a2.18,2.18,0,0,0-.87.31l-3.07,1.1a2.17,2.17,0,0,0-.63.22l-3.08,1.1a2.17,2.17,0,0,0-.59.21l-7,2.52a2.17,2.17,0,0,0-.56.2L155,289a2.19,2.19,0,0,0-1,.36l-2.05.73-.63.23A2.19,2.19,0,0,0,150.31,290.73Z" fill="#fcd07a"/><ellipse cx="176.41" cy="293.38" rx="2.2" ry="2.18" fill="#fcd07a"/><rect x="171.7" y="302.27" width="9.49" height="14.72" fill="#fcd07a"/><rect x="153.74" y="299.62" width="11.45" height="11.38" fill="#fcd07a"/><rect x="187.63" y="299.61" width="11.45" height="11.38" fill="#fcd07a"/><path d="M392.34,292.51V280a2.18,2.18,0,0,1-2.59-1.13,2.18,2.18,0,0,1-4-.17v0a2.2,2.2,0,0,1-2.81,1.31,2.17,2.17,0,0,1-1.28-1.25,2.18,2.18,0,0,1-4-.12,2.19,2.19,0,0,1-4,.14,2.19,2.19,0,0,1-4-.06,2.2,2.2,0,0,1-4,.09,2.19,2.19,0,0,1-4,.08,2.18,2.18,0,0,1-4-.17,2.2,2.2,0,0,1-2.79,1.26,2.18,2.18,0,0,1-1.28-1.24,2.19,2.19,0,0,1-4-.07,2.19,2.19,0,0,1-4,.14,2.19,2.19,0,0,1-4-.06,2.19,2.19,0,0,1-2.55,1.3v37H361V302.27h9.49V317h21.88V292.51Zm-37.88-7.77v11.38H343V284.73Zm0,26.26H343V299.62h11.45Zm16.71-14.88H359.71V284.73h11.45Zm5.8-11.37h11.45v11.38H377ZM377,311V299.62h11.45V311Z" fill="#fff"/><rect x="360.96" y="302.27" width="9.49" height="14.72" fill="#dcdcdc"/><rect x="343" y="299.62" width="11.45" height="11.38" fill="#dcdcdc"/><rect x="376.96" y="299.62" width="11.45" height="11.38" fill="#dcdcdc"/><rect x="343" y="284.73" width="11.45" height="11.38" fill="#dcdcdc"/><rect x="376.96" y="284.73" width="11.45" height="11.38" fill="#dcdcdc"/><rect x="359.71" y="284.73" width="11.45" height="11.38" fill="#dcdcdc"/><path d="M340,257.08l-1,8.1-.72,5.84-.78,6.32a2.15,2.15,0,0,0,.1,1.43,2.22,2.22,0,0,0,1.26,1.19l.23.06a2.19,2.19,0,0,0,2.55-1.3,2.19,2.19,0,0,0,4,.06,2.19,2.19,0,0,0,4-.14,2.19,2.19,0,0,0,4,.07,2.18,2.18,0,0,0,1.28,1.24,2.2,2.2,0,0,0,2.79-1.26,2.18,2.18,0,0,0,4,.17,2.19,2.19,0,0,0,4-.08,2.2,2.2,0,0,0,4-.09,2.19,2.19,0,0,0,4,.06,2.19,2.19,0,0,0,4-.14,2.18,2.18,0,0,0,4,.12,2.17,2.17,0,0,0,1.28,1.25,2.2,2.2,0,0,0,2.81-1.31v0a2.18,2.18,0,0,0,4,.17,2.2,2.2,0,0,0,4-.21,2.15,2.15,0,0,0,.06-1.3l-2.61-20.63H340Z" fill="#dcdcdc"/><path d="M273.91,291.38v0l1.28-10.46-.05-.06a21.56,21.56,0,0,1-2.57-3.74.75.75,0,0,0-1.33,0,21.54,21.54,0,0,1-2.57,3.74c-.28.34-.57.68-.88,1a.75.75,0,0,0,.47,1.25.77.77,0,0,1,.63,1.09l0,.08a19.25,19.25,0,0,1-5.37,6.7.74.74,0,0,0,.31,1.33,14.82,14.82,0,0,0,2.67.23.72.72,0,0,1,.71,1.09,19.5,19.5,0,0,1-3.52,4.52c-.19.18-.38.37-.58.55a20.05,20.05,0,0,1-3.2,2.33.75.75,0,0,0,.23,1.4,14.79,14.79,0,0,0,3.22.08.77.77,0,0,1,.71,1.17,24.65,24.65,0,0,1-5.88,6.86.75.75,0,0,0,.31,1.32h17V294.24l-.25-.06A2.18,2.18,0,0,1,273.91,291.38Z" fill="#5aa932"/><rect x="270.69" y="311.85" width="2.74" height="5.14" fill="#e9a178"/><path d="M328.73,297v-2.76a2.18,2.18,0,0,1-2.62-1.11,2.19,2.19,0,0,1-4-.06,2.2,2.2,0,0,1-2.78,1.24,2.18,2.18,0,0,1-1.28-1.24,2.18,2.18,0,0,1-4-.13,2.19,2.19,0,0,1-4,.14,2.18,2.18,0,0,1-4-.17h0a2.2,2.2,0,0,1-4.06.16,2.19,2.19,0,0,1-4,.08,2.19,2.19,0,0,1-4-.08,2.19,2.19,0,0,1-4-.05,2.19,2.19,0,0,1-2.76,1.19A2.17,2.17,0,0,1,286,293a2.19,2.19,0,0,1-4,.14,2.18,2.18,0,0,1-4-.18,2.19,2.19,0,0,1-2.54,1.32V317h53.26V297Zm-37.88,2.6V311H279.39V299.61Zm16,17.3h-9.49V302.19h9.49Zm6.51-5.92V299.61H324.8V311Z" fill="#fad269"/><rect x="297.35" y="302.19" width="9.49" height="14.72" fill="#74537a"/><rect x="279.39" y="299.61" width="11.45" height="11.38" fill="#69e2de"/><rect x="313.35" y="299.61" width="11.45" height="11.38" fill="#69e2de"/><path d="M277.67,270.95h-1.26l-1.21,9.89v.06l-1.28,10.46v0a2.18,2.18,0,0,0,1.31,2.79l.25.06a2.19,2.19,0,0,0,2.54-1.32,2.18,2.18,0,0,0,4,.18,2.19,2.19,0,0,0,4-.14,2.17,2.17,0,0,0,1.29,1.27,2.19,2.19,0,0,0,2.76-1.19,2.19,2.19,0,0,0,4,.05,2.19,2.19,0,0,0,4,.08,2.19,2.19,0,0,0,4-.08,2.2,2.2,0,0,0,4.06-.16h0a2.18,2.18,0,0,0,4,.17,2.19,2.19,0,0,0,4-.14,2.18,2.18,0,0,0,4,.13,2.18,2.18,0,0,0,1.28,1.24,2.2,2.2,0,0,0,2.78-1.24,2.19,2.19,0,0,0,4,.06,2.19,2.19,0,0,0,4.14-.62,2.14,2.14,0,0,0,0-.38h0l-.43-3.39-1.21-9.62-1-8.1v-.08h-50Z" fill="#ffa033"/><rect width="590" height="132" fill="#5aa932"/><path d="M115.77,25.16q6.82,0,10.47,2.42t3.65,7.83q0,5.5-3.7,8t-10.56,2.42h-2.16V56h-6.86V25.95a38.83,38.83,0,0,1,4.75-.62Q113.88,25.16,115.77,25.16Zm.44,5.85q-.75,0-1.5,0l-1.23.09v8.8h2.16A11.68,11.68,0,0,0,121,39a3.72,3.72,0,0,0,1.8-3.61,4.16,4.16,0,0,0-.48-2.11A3.18,3.18,0,0,0,121,31.93a5.21,5.21,0,0,0-2.07-.7A15.56,15.56,0,0,0,116.21,31ZM155.5,44.38a15.24,15.24,0,0,1-.79,5,11.1,11.1,0,0,1-2.29,3.87,10.39,10.39,0,0,1-3.61,2.46,11.8,11.8,0,0,1-4.66.88,12,12,0,0,1-4.66-.88,10.51,10.51,0,0,1-3.56-2.46,11.69,11.69,0,0,1-2.33-3.87,14.52,14.52,0,0,1-.84-5,14.15,14.15,0,0,1,.84-5A11.76,11.76,0,0,1,136,35.58a11,11,0,0,1,3.61-2.46,11.78,11.78,0,0,1,4.58-.88,11.57,11.57,0,0,1,4.58.88,10.39,10.39,0,0,1,3.61,2.46,11.17,11.17,0,0,1,2.33,3.83A14.13,14.13,0,0,1,155.5,44.38Zm-6.69,0a8,8,0,0,0-1.23-4.75,3.89,3.89,0,0,0-3.43-1.76,4,4,0,0,0-3.48,1.76,8,8,0,0,0-1.23,4.75,8.45,8.45,0,0,0,1.23,4.84A4,4,0,0,0,144.15,51a3.89,3.89,0,0,0,3.43-1.76A8.45,8.45,0,0,0,148.81,44.38ZM159.48,33.6a20.22,20.22,0,0,1,3.56-.92,25.71,25.71,0,0,1,4.4-.35,17.48,17.48,0,0,1,3.52.35,8.9,8.9,0,0,1,3,1.1,5.73,5.73,0,0,1,2.16,2,5.45,5.45,0,0,1,.84,3.12,5.33,5.33,0,0,1-.79,2.95,6.19,6.19,0,0,1-2.24,2,6.39,6.39,0,0,1,2.86,2.2,6.07,6.07,0,0,1,.92,3.48,6.29,6.29,0,0,1-.84,3.34A6.6,6.6,0,0,1,174.66,55a10,10,0,0,1-3.21,1.19,17.4,17.4,0,0,1-3.74.4,22.31,22.31,0,0,1-2.38-.13,21.8,21.8,0,0,1-2.42-.31,17.17,17.17,0,0,1-2.2-.48,17.54,17.54,0,0,1-1.89-.66l1.19-5.1a28.15,28.15,0,0,0,2.82.84,18,18,0,0,0,4.36.48q4,0,4-2.2a2,2,0,0,0-.31-1.19,2.07,2.07,0,0,0-.84-.75,3.28,3.28,0,0,0-1.14-.35,10,10,0,0,0-1.32-.09h-5.15V42h5.19a3.08,3.08,0,0,0,2.2-.62,2.06,2.06,0,0,0,.66-1.5,2,2,0,0,0-.75-1.5,3.75,3.75,0,0,0-2.64-.7,18.15,18.15,0,0,0-3.65.35q-1.72.35-2.77.66ZM182.37,56V32.86h6.56V50.63h6V32.86h6.56V50.63h6V32.86H214V56ZM241.3,32.86V56h-6.6q0-2.2,0-4.36t.09-4q0-1.85.09-3.21t.09-2.07q-1.28,1.8-2.55,3.65T230,49.62L227.79,53q-1,1.63-1.8,3h-5.76V32.86h6.56q0,2.2,0,4.22t0,3.61q0,1.63-.09,2.86t0,1.85q2.64-3.87,4.84-7t4.36-5.59Zm21,11.75a7.84,7.84,0,0,0-1.36-4.84,4.71,4.71,0,0,0-4-1.85,14,14,0,0,0-1.63.09,10.53,10.53,0,0,0-1.23.13V50a5.7,5.7,0,0,0,1.58.66,8,8,0,0,0,2,.26Q262.29,50.9,262.29,44.6Zm6.69-.18a17,17,0,0,1-.66,4.88,11,11,0,0,1-1.94,3.78,8.75,8.75,0,0,1-3.17,2.46,10.23,10.23,0,0,1-4.36.88,11.75,11.75,0,0,1-2.55-.26,12.27,12.27,0,0,1-2.29-.75v8.71h-6.56V33.65a20.66,20.66,0,0,1,2-.48q1.14-.26,2.38-.44t2.55-.26q1.32-.13,2.51-.13a13.9,13.9,0,0,1,5.1.88,10.12,10.12,0,0,1,3.78,2.42,10,10,0,0,1,2.33,3.78A14.29,14.29,0,0,1,269,44.43Zm3.94.18a14.28,14.28,0,0,1,.92-5.37,11.8,11.8,0,0,1,2.51-3.87A10.4,10.4,0,0,1,279.87,33a11.26,11.26,0,0,1,4.14-.79,10.18,10.18,0,0,1,7.79,3q2.86,3,2.86,8.84,0,.57,0,1.28t-.09,1.19H279.65a4.36,4.36,0,0,0,1.89,3.21A7.61,7.61,0,0,0,286,51a19.89,19.89,0,0,0,3.52-.31,14.11,14.11,0,0,0,2.86-.84l.88,5.32a9,9,0,0,1-1.41.53,15.32,15.32,0,0,1-2,.44q-1.06.22-2.29.35a23.1,23.1,0,0,1-2.46.13,14.76,14.76,0,0,1-5.46-.92,11,11,0,0,1-3.83-2.51,10.66,10.66,0,0,1-2.24-3.83A15.52,15.52,0,0,1,272.92,44.6Zm15.4-2.51a6.13,6.13,0,0,0-.31-1.63,3.62,3.62,0,0,0-.75-1.41A3.68,3.68,0,0,0,286,38a4,4,0,0,0-1.89-.4,4.19,4.19,0,0,0-1.89.4,3.68,3.68,0,0,0-1.32,1,4.72,4.72,0,0,0-.84,1.45,10.14,10.14,0,0,0-.4,1.63ZM319.65,56h-6.56V46.85h-6.82V56h-6.56V32.86h6.56v8.62h6.82V32.86h6.56Zm26.08,0h-6.56V46.85h-6.82V56H325.8V32.86h6.56v8.62h6.82V32.86h6.56Zm15.74-8.23A41.35,41.35,0,0,0,359,52q-1.1,2.07-2.11,4h-6.73q1.27-2.86,2.6-5.24a42.09,42.09,0,0,1,2.55-4.09,8.44,8.44,0,0,1-2.95-2.46,6.41,6.41,0,0,1-1.1-3.83A7,7,0,0,1,354,34.44q2.82-2.07,7.74-2.07,1.1,0,2.42.09t2.68.26q1.32.18,2.51.4a18.73,18.73,0,0,1,2.07.4V56h-6.56V47.77Zm3.39-10.21q-.44,0-1.36-.09t-1.58-.09a4.86,4.86,0,0,0-3.3.84,2.65,2.65,0,0,0-.88,2.07,2.55,2.55,0,0,0,.35,1.36,2.94,2.94,0,0,0,.92.88,4.36,4.36,0,0,0,1.28.44,7.62,7.62,0,0,0,1.41.13h3.17Zm22.18-4a20.27,20.27,0,0,1,3.56-.92,25.72,25.72,0,0,1,4.4-.35,17.47,17.47,0,0,1,3.52.35,8.9,8.9,0,0,1,3,1.1,5.72,5.72,0,0,1,2.16,2,5.44,5.44,0,0,1,.84,3.12,5.33,5.33,0,0,1-.79,2.95,6.19,6.19,0,0,1-2.24,2,6.39,6.39,0,0,1,2.86,2.2,6.07,6.07,0,0,1,.92,3.48,6.28,6.28,0,0,1-.84,3.34A6.58,6.58,0,0,1,402.22,55,10,10,0,0,1,399,56.22a17.39,17.39,0,0,1-3.74.4,22.34,22.34,0,0,1-2.38-.13,21.83,21.83,0,0,1-2.42-.31,17.2,17.2,0,0,1-2.2-.48,17.62,17.62,0,0,1-1.89-.66l1.19-5.1a28.23,28.23,0,0,0,2.82.84,18,18,0,0,0,4.36.48q4,0,4-2.2a2,2,0,0,0-.31-1.19,2.06,2.06,0,0,0-.84-.75,3.27,3.27,0,0,0-1.14-.35,10,10,0,0,0-1.32-.09h-5.15V42h5.19a3.08,3.08,0,0,0,2.2-.62,2.06,2.06,0,0,0,.66-1.5,2,2,0,0,0-.75-1.5,3.75,3.75,0,0,0-2.64-.7A18.16,18.16,0,0,0,391,38q-1.72.35-2.77.66Zm44.53,10.78a15.24,15.24,0,0,1-.79,5,11.1,11.1,0,0,1-2.29,3.87,10.39,10.39,0,0,1-3.61,2.46,11.8,11.8,0,0,1-4.66.88,12,12,0,0,1-4.66-.88A10.51,10.51,0,0,1,412,53.27a11.69,11.69,0,0,1-2.33-3.87,14.52,14.52,0,0,1-.84-5,14.15,14.15,0,0,1,.84-5A11.76,11.76,0,0,1,412,35.58a11,11,0,0,1,3.61-2.46,11.78,11.78,0,0,1,4.58-.88,11.57,11.57,0,0,1,4.58.88,10.39,10.39,0,0,1,3.61,2.46,11.17,11.17,0,0,1,2.33,3.83A14.13,14.13,0,0,1,431.58,44.38Zm-6.69,0a8,8,0,0,0-1.23-4.75,3.89,3.89,0,0,0-3.43-1.76,4,4,0,0,0-3.48,1.76,8,8,0,0,0-1.23,4.75,8.45,8.45,0,0,0,1.23,4.84A4,4,0,0,0,420.22,51a3.89,3.89,0,0,0,3.43-1.76A8.45,8.45,0,0,0,424.89,44.38ZM456.59,56H450V46.85h-6.82V56h-6.56V32.86h6.56v8.62H450V32.86h6.56Zm27.23-23.14V56h-6.6q0-2.2,0-4.36t.09-4q0-1.85.09-3.21t.09-2.07Q476.24,44.12,475,46t-2.46,3.65L470.3,53q-1,1.63-1.8,3h-5.76V32.86h6.56q0,2.2,0,4.22t0,3.61q0,1.63-.09,2.86t0,1.85q2.64-3.87,4.84-7t4.36-5.59Zm-268.26,51V107H209V89.31h-6.82V107h-6.56V83.86Zm27.8,11.53a15.24,15.24,0,0,1-.79,5,11.11,11.11,0,0,1-2.29,3.87,10.4,10.4,0,0,1-3.61,2.46,11.8,11.8,0,0,1-4.66.88,12,12,0,0,1-4.66-.88,10.49,10.49,0,0,1-3.56-2.46,11.65,11.65,0,0,1-2.33-3.87,14.5,14.5,0,0,1-.84-5,14.13,14.13,0,0,1,.84-5,11.73,11.73,0,0,1,2.38-3.83,11,11,0,0,1,3.61-2.46,11.78,11.78,0,0,1,4.58-.88,11.57,11.57,0,0,1,4.58.88,10.4,10.4,0,0,1,3.61,2.46,11.2,11.2,0,0,1,2.33,3.83A14.15,14.15,0,0,1,243.35,95.38Zm-6.69,0a8,8,0,0,0-1.23-4.75A3.89,3.89,0,0,0,232,88.87a4,4,0,0,0-3.48,1.76,8,8,0,0,0-1.23,4.75,8.45,8.45,0,0,0,1.23,4.84A4,4,0,0,0,232,102a3.89,3.89,0,0,0,3.43-1.76A8.45,8.45,0,0,0,236.66,95.38ZM255,92q1-.92,2-2t2.11-2.16l1.94-2.11,1.63-1.8h8l-2.2,2.29q-1.28,1.36-2.73,2.86t-2.95,2.9q-1.45,1.45-2.77,2.6A29,29,0,0,1,262.82,97q1.5,1.5,2.9,3.21t2.73,3.48a38.9,38.9,0,0,1,2.24,3.3h-7.48q-.79-1.19-1.8-2.46T259.3,102q-1.1-1.28-2.24-2.38T255,97.72V107h-6.56V83.86H255ZM289,95.6a7.84,7.84,0,0,0-1.36-4.84,4.71,4.71,0,0,0-4-1.85A14,14,0,0,0,282,89a10.54,10.54,0,0,0-1.23.13V101a5.7,5.7,0,0,0,1.58.66,8,8,0,0,0,2,.26Q289,101.9,289,95.6Zm6.69-.18a17,17,0,0,1-.66,4.88,11,11,0,0,1-1.94,3.78,8.75,8.75,0,0,1-3.17,2.46,10.22,10.22,0,0,1-4.36.88,11.75,11.75,0,0,1-2.55-.26,12.25,12.25,0,0,1-2.29-.75v8.71h-6.56V84.65a20.66,20.66,0,0,1,2-.48q1.14-.26,2.38-.44t2.55-.26q1.32-.13,2.51-.13a13.9,13.9,0,0,1,5.1.88,10.12,10.12,0,0,1,3.78,2.42,10,10,0,0,1,2.33,3.78A14.29,14.29,0,0,1,295.73,95.43Zm26.11-11.57V107h-6.6q0-2.2,0-4.36t.09-4q0-1.85.09-3.21t.09-2.07Q314.28,95.12,313,97t-2.46,3.65l-2.2,3.39q-1,1.63-1.8,3h-5.76V83.86h6.56q0,2.2,0,4.22t0,3.61q0,1.63-.09,2.86t0,1.85q2.64-3.87,4.84-7t4.36-5.59Zm25.31,5.37h-7.39V107H333.2V89.22h-7.39V83.86h21.34Zm23.72,0h-7.39V107h-6.56V89.22h-7.39V83.86h21.34Zm13.57,9.55a41.74,41.74,0,0,0-2.51,4.18q-1.1,2.07-2.11,4h-6.73q1.28-2.86,2.6-5.24a42.29,42.29,0,0,1,2.55-4.09,8.45,8.45,0,0,1-2.95-2.46,6.42,6.42,0,0,1-1.1-3.83A7,7,0,0,1,377,85.44q2.82-2.07,7.74-2.07,1.1,0,2.42.09t2.68.26q1.32.18,2.51.4a18.63,18.63,0,0,1,2.07.4V107h-6.56V98.77Zm3.39-10.21q-.44,0-1.36-.09t-1.58-.09a4.86,4.86,0,0,0-3.3.84,2.65,2.65,0,0,0-.88,2.07,2.56,2.56,0,0,0,.35,1.36,3,3,0,0,0,.92.88,4.38,4.38,0,0,0,1.28.44,7.63,7.63,0,0,0,1.41.13h3.17Z" fill="#fff"/><path d="M113.37,164a9.47,9.47,0,0,1,6.25,2.34,14.78,14.78,0,0,1,13.06-7.64,15.14,15.14,0,0,1,8.35,2.51,23.85,23.85,0,0,1,39-2.12,14.38,14.38,0,0,1,3.46-.45,14.7,14.7,0,0,1,14.82,14.56H104A9.3,9.3,0,0,1,113.37,164Z" fill="#f2f2f2"/><path d="M453.83,106.48a5.23,5.23,0,0,0-3.41,1.28,8,8,0,0,0-7-4.13,7.76,7.76,0,0,0-4.49,1.4,12.87,12.87,0,0,0-21-1.12,7.19,7.19,0,0,0-1.87-.22,7.93,7.93,0,0,0-8,7.87h50.89A5,5,0,0,0,453.83,106.48Z" fill="#fff"/><path d="M474.83,162.48a5.23,5.23,0,0,0-3.41,1.28,8,8,0,0,0-7-4.13A7.76,7.76,0,0,0,459.9,161a12.87,12.87,0,0,0-21-1.12,7.19,7.19,0,0,0-1.87-.22,7.93,7.93,0,0,0-8,7.87h50.89A5,5,0,0,0,474.83,162.48Z" fill="#f2f2f2"/><path d="M106.91,103a9.47,9.47,0,0,0-6.25,2.34A14.78,14.78,0,0,0,87.6,97.7a15.14,15.14,0,0,0-8.35,2.51,23.85,23.85,0,0,0-39-2.12,14.38,14.38,0,0,0-3.46-.45A14.7,14.7,0,0,0,22,112.21h94.28A9.23,9.23,0,0,0,106.91,103Z" fill="#fff"/><path d="M86.78,206.48a5,5,0,0,0-3.35,1.28,8,8,0,0,0-7-4.13A7.76,7.76,0,0,0,71.9,205a12.87,12.87,0,0,0-21-1.12,7.19,7.19,0,0,0-1.87-.22,7.93,7.93,0,0,0-8,7.87H91.89A5.06,5.06,0,0,0,86.78,206.48Z" fill="#f2f2f2"/><path d="M472.37,80a9.48,9.48,0,0,1,6.25,2.34,14.78,14.78,0,0,1,13.06-7.64A15.14,15.14,0,0,1,500,77.21a23.85,23.85,0,0,1,39-2.12,14.38,14.38,0,0,1,3.46-.45,14.7,14.7,0,0,1,14.82,14.56H463A9.23,9.23,0,0,1,472.37,80Z" fill="#fff"/></svg>