<svg xmlns="http://www.w3.org/2000/svg" width="96.51" height="96" viewBox="0 0 96.51 96"><path d="M95.71,90.35l.1-.11A15.88,15.88,0,0,0,97,88.52,1.37,1.37,0,0,0,97,87a1.58,1.58,0,0,0-1.35-.75H86.29l-5-5.57h0l5-5.26h9.33a1.42,1.42,0,0,0,1.51-1.5,1.39,1.39,0,0,0-.12-.59,1.32,1.32,0,0,0-.18-.46A15.32,15.32,0,0,0,72,70.65l-.14.16-.4.48a15.56,15.56,0,0,0-1.93,3.08H28.18a15.55,15.55,0,0,0-2-3.11l-.15-.18-.44-.52c-.18-.2-.37-.4-.57-.6L25,69.89a15.2,15.2,0,0,0-7.48-4l-.11,0c-.32-.07-.64-.13-1-.17l-.43,0-.68-.07q-.57,0-1.14,0A15.36,15.36,0,0,0,.93,73a1.37,1.37,0,0,0,0,1.5,1.58,1.58,0,0,0,1.35.75h9.33l5,5.57-5,5.57H2.28a1.58,1.58,0,0,0-1.35.75,1.37,1.37,0,0,0,0,1.5,15.36,15.36,0,0,0,13.25,7.52h.15a15.79,15.79,0,0,0,14-8.88H69.58a15.56,15.56,0,0,0,1.94,3.09l.22.27.37.43c.2.23.41.45.63.66h0A15.24,15.24,0,0,0,81.35,96h.1c.33,0,.67.08,1,.11h.24c.29,0,.59,0,.88,0a15.55,15.55,0,0,0,10.86-4.44l.25-.26c.15-.16.31-.31.45-.47S95.52,90.58,95.71,90.35Zm-23.57-5a1.41,1.41,0,0,0-1.5-1v-.06H27.27v.06a1.62,1.62,0,0,0-1.35,1,12.63,12.63,0,0,1-11.59,7.82,12.52,12.52,0,0,1-9-3.91h6.93a1.63,1.63,0,0,0,1.05-.45l6.32-7.07a1.58,1.58,0,0,0,0-2l-6.32-7.07a1.17,1.17,0,0,0-1.05-.45H5.29a12.2,12.2,0,0,1,9-3.91,11.66,11.66,0,0,1,11.29,8,1.43,1.43,0,0,0,2.22.75H70a1.57,1.57,0,0,0,2-.9,12.46,12.46,0,0,1,20.63-3.91H85.69a1.63,1.63,0,0,0-1.05.45L78.31,79.8a1.58,1.58,0,0,0,0,2l6.47,7.07a1.17,1.17,0,0,0,1.05.45h6.93a12.2,12.2,0,0,1-9,3.91A12.4,12.4,0,0,1,72.14,85.36Z" transform="translate(-0.7 -0.19)" fill="#183651"/><path d="M92.76,89.27H85.84a1.17,1.17,0,0,1-1.05-.45l-6.47-7.07a1.58,1.58,0,0,1,0-2l6.32-7.07a1.63,1.63,0,0,1,1.05-.45h6.93A12.46,12.46,0,0,0,72,76.19a1.57,1.57,0,0,1-2,.9H27.83a1.43,1.43,0,0,1-2.22-.75,11.66,11.66,0,0,0-11.29-8,12.2,12.2,0,0,0-9,3.91h6.93a1.17,1.17,0,0,1,1.05.45l6.32,7.07a1.58,1.58,0,0,1,0,2l-6.32,7.07a1.63,1.63,0,0,1-1.05.45H5.29a12.52,12.52,0,0,0,9,3.91,12.63,12.63,0,0,0,11.59-7.82,1.62,1.62,0,0,1,1.35-1v-.06H70.63v.06a1.41,1.41,0,0,1,1.5,1,12.4,12.4,0,0,0,11.59,7.82A12.2,12.2,0,0,0,92.76,89.27ZM41.42,82.2h-3v-3h3Zm9,0h-3v-3h3Zm9,0h-3v-3h3Z" transform="translate(-0.7 -0.19)" fill="#fff"/><rect x="37.71" y="79.01" width="3.01" height="3.01" fill="#183651"/><rect x="46.75" y="79.01" width="3.01" height="3.01" fill="#183651"/><rect x="55.78" y="79.01" width="3.01" height="3.01" fill="#183651"/><path d="M45.19,35.42a1.7,1.7,0,0,1-.45-1.65,20.61,20.61,0,0,0,1.2-5.27A1.44,1.44,0,0,1,47,27.14l4.52-1.35-.9-5.42-4.67.3a1.66,1.66,0,0,1-1.51-.9,21.59,21.59,0,0,0-2.86-4.66,1.37,1.37,0,0,1-.15-1.65l2.26-4.06L39.32,6.23,36.16,9.69a1.7,1.7,0,0,1-1.66.45,20.65,20.65,0,0,0-5.27-1.2,1.45,1.45,0,0,1-1.35-1.05L26.52,3.38l-5.42.9.3,4.66a1.65,1.65,0,0,1-.9,1.5,21.61,21.61,0,0,0-4.67,2.86,1.37,1.37,0,0,1-1.66.15L10,11.2l-3,4.51,3.46,3.16a1.7,1.7,0,0,1,.45,1.65,20.61,20.61,0,0,0-1.2,5.27A1.44,1.44,0,0,1,8.6,27.14L4.09,28.5l.75,5.27,4.67-.3a1.66,1.66,0,0,1,1.51.9A21.59,21.59,0,0,0,13.87,39,1.37,1.37,0,0,1,14,40.68l-2.26,4.06,4.37,3.16,3.16-3.46a4.39,4.39,0,0,1,1.36-.3,1.14,1.14,0,0,1,.6.15,20.66,20.66,0,0,0,5.27,1.2,1.45,1.45,0,0,1,1.35,1.05l1.35,4.51,5.42-.9-.3-4.66a1.65,1.65,0,0,1,.9-1.5,21.62,21.62,0,0,0,4.67-2.86A1.37,1.37,0,0,1,41.58,41l4.07,2.26,3.16-4.36Z" transform="translate(-0.7 -0.19)" fill="#fff"/><path d="M54.67,26.54l-1.36-8a1.47,1.47,0,0,0-1.51-1.2l-5,.3a18.09,18.09,0,0,0-2.26-3.61L47,9.69a1.59,1.59,0,0,0-.45-2L39.92,3.08a1.41,1.41,0,0,0-2,.15L34.65,7a21.11,21.11,0,0,0-4.22-.9L28.93,1.27A1.39,1.39,0,0,0,27.27.22l-8,1.35a1.47,1.47,0,0,0-1.2,1.5l.15,5.11a14.66,14.66,0,0,0-3.61,2.26L10.26,8a1.6,1.6,0,0,0-2,.45L3.64,15.11a1.41,1.41,0,0,0,.15,2l3.76,3.31a13,13,0,0,0-.75,4.21L2,26.09A1.39,1.39,0,0,0,.93,27.75l1.35,8a1.47,1.47,0,0,0,1.51,1.2l5-.3A14.64,14.64,0,0,0,11,40.23L8.6,44.59a1.59,1.59,0,0,0,.45,2l6.47,4.81a1.41,1.41,0,0,0,2-.15l3.31-3.76a21.11,21.11,0,0,0,4.22.9l1.51,4.81A1.81,1.81,0,0,0,28,54.22c.15,0,.15,0,.3-.3l8-1.35a1.47,1.47,0,0,0,1.2-1.5l-.3-5a14.66,14.66,0,0,0,3.61-2.26l4.37,2.41a1.6,1.6,0,0,0,2-.45l4.67-6.62a1.41,1.41,0,0,0-.15-2L47.9,33.91a21.08,21.08,0,0,0,.9-4.21l4.82-1.5A1.39,1.39,0,0,0,54.67,26.54ZM41.58,41a1.37,1.37,0,0,0-1.66.15A21.62,21.62,0,0,1,35.25,44a1.65,1.65,0,0,0-.9,1.5l.3,4.66-5.42.9-1.35-4.51a1.45,1.45,0,0,0-1.35-1.05,20.66,20.66,0,0,1-5.27-1.2,1.14,1.14,0,0,0-.6-.15,4.39,4.39,0,0,0-1.36.3L16.13,47.9l-4.37-3.16L14,40.68A1.37,1.37,0,0,0,13.87,39,21.59,21.59,0,0,1,11,34.36a1.66,1.66,0,0,0-1.51-.9l-4.67.3L4.09,28.5,8.6,27.14a1.44,1.44,0,0,0,1.05-1.35,20.61,20.61,0,0,1,1.2-5.27,1.7,1.7,0,0,0-.45-1.65L6.95,15.71l3-4.51,4.22,2.26a1.37,1.37,0,0,0,1.66-.15,21.61,21.61,0,0,1,4.67-2.86,1.65,1.65,0,0,0,.9-1.5l-.3-4.66,5.42-.9,1.35,4.51a1.45,1.45,0,0,0,1.35,1.05,20.65,20.65,0,0,1,5.27,1.2,1.7,1.7,0,0,0,1.66-.45l3.16-3.46,4.37,3.16-2.26,4.06a1.37,1.37,0,0,0,.15,1.65,21.59,21.59,0,0,1,2.86,4.66,1.66,1.66,0,0,0,1.51.9l4.67-.3.9,5.42L47,27.14a1.44,1.44,0,0,0-1.05,1.35,20.61,20.61,0,0,1-1.2,5.27,1.7,1.7,0,0,0,.45,1.65l3.61,3.46-3.16,4.36Z" transform="translate(-0.7 -0.19)" fill="#183651"/><path d="M27.88,42.64A15.49,15.49,0,1,0,12.37,27.14,15.5,15.5,0,0,0,27.88,42.64Z" transform="translate(-0.7 -0.19)" fill="#f5c55f"/><path d="M33.45,26.24a5.77,5.77,0,0,0-5.57-4.66,1.91,1.91,0,0,0-.9.15A5.78,5.78,0,0,0,23.36,24a5.22,5.22,0,0,0-.9,4.21A5.54,5.54,0,0,0,28,32.86a1.91,1.91,0,0,0,.9-.15,5.78,5.78,0,0,0,3.61-2.26A5.22,5.22,0,0,0,33.45,26.24Z" transform="translate(-0.7 -0.19)" fill="#fff"/><path d="M36.46,25.64A8.44,8.44,0,0,0,28,18.42a4.64,4.64,0,0,0-1.51.15A8.5,8.5,0,0,0,20.95,22a8.65,8.65,0,0,0,6.93,13.69,5.65,5.65,0,0,0,1.51-.15A8.5,8.5,0,0,0,35,32.11,8.39,8.39,0,0,0,36.46,25.64Zm-7.53,7.07a1.91,1.91,0,0,1-.9.15,5.54,5.54,0,0,1-5.57-4.66,5.22,5.22,0,0,1,.9-4.21A5.78,5.78,0,0,1,27,21.73a1.91,1.91,0,0,1,.9-.15,5.77,5.77,0,0,1,5.57,4.66,5.22,5.22,0,0,1-.9,4.21A5.78,5.78,0,0,1,28.93,32.71Z" transform="translate(-0.7 -0.19)" fill="#183651"/><path d="M89.75,38.88a13.58,13.58,0,0,0-.6-4.21A1.7,1.7,0,0,1,89.6,33l2.71-2.11-2-3.16L87.2,29.1a1.38,1.38,0,0,1-1.66-.3,11,11,0,0,0-3.46-2.41,1.32,1.32,0,0,1-.75-1.5l.45-3.46-3.61-.9-1.35,3a1.32,1.32,0,0,1-1.35.9,13.61,13.61,0,0,0-4.22.6,1.7,1.7,0,0,1-1.66-.45l-2.11-2.71-3.16,2L65.67,27a1.37,1.37,0,0,1-.3,1.65A11,11,0,0,0,63,32.11a1.32,1.32,0,0,1-1.51.75L58,32.41l-.75,3.76,3.16,1.2a1.32,1.32,0,0,1,.9,1.35,13.58,13.58,0,0,0,.6,4.21,1.7,1.7,0,0,1-.45,1.65L58.74,46.7l2,3.16,3.16-1.35a1.38,1.38,0,0,1,1.66.3A11,11,0,0,0,69,51.21a1.32,1.32,0,0,1,.75,1.5L69.43,56l3.61.9,1.2-3.16a1.32,1.32,0,0,1,1.35-.9,13.61,13.61,0,0,0,4.22-.6,1.7,1.7,0,0,1,1.66.45l2.11,2.71,3.16-2-1.51-3.16a1.37,1.37,0,0,1,.3-1.65,12.39,12.39,0,0,0,2.41-3.31,1.32,1.32,0,0,1,1.51-.75l3.46.45.9-3.61-3.16-1.2A1.32,1.32,0,0,1,89.75,38.88Z" transform="translate(-0.7 -0.19)" fill="#fff"/><path d="M96.08,38.88l-3.46-1.35a10.42,10.42,0,0,0-.45-3l3-2.26a1.43,1.43,0,0,0,.3-2l-3.31-5.42a1.65,1.65,0,0,0-2-.6l-3.46,1.5A9.19,9.19,0,0,0,84.33,24l.6-3.61a1.63,1.63,0,0,0-1.2-1.65l-6.17-1.5a1.54,1.54,0,0,0-1.81.9L74.4,21.58a9.72,9.72,0,0,0-3,.45l-2.26-3a1.43,1.43,0,0,0-2-.3L61.75,22a1.64,1.64,0,0,0-.6,2l1.51,3.46a9.18,9.18,0,0,0-1.81,2.41l-3.76-.45a1.63,1.63,0,0,0-1.66,1.2l-1.51,6.17A1.39,1.39,0,0,0,55,38.43l3.46,1.35a9.7,9.7,0,0,0,.45,3l-3,2.26a1.43,1.43,0,0,0-.3,2l3.31,5.42a1.65,1.65,0,0,0,2,.6l3.46-1.5a9.19,9.19,0,0,0,2.41,1.81l-.45,3.76a1.63,1.63,0,0,0,1.2,1.65l6.17,1.5h.3a1.52,1.52,0,0,0,1.36-.9l1.2-3.46a9.72,9.72,0,0,0,3-.45l2.26,3a1.43,1.43,0,0,0,2,.3l5.42-3.31a1.64,1.64,0,0,0,.6-2L88.25,50a9.18,9.18,0,0,0,1.81-2.41l3.76.45a1.63,1.63,0,0,0,1.66-1.2L97,40.68A1.53,1.53,0,0,0,96.08,38.88ZM92.92,45l-3.46-.45a1.32,1.32,0,0,0-1.51.75,12.39,12.39,0,0,1-2.41,3.31,1.37,1.37,0,0,0-.3,1.65l1.51,3.16-3.16,2-2.11-2.71a1.7,1.7,0,0,0-1.66-.45,13.61,13.61,0,0,1-4.22.6,1.32,1.32,0,0,0-1.35.9L73,56.93,69.43,56l.3-3.31a1.32,1.32,0,0,0-.75-1.5,11,11,0,0,1-3.46-2.41,1.38,1.38,0,0,0-1.66-.3L60.7,49.86l-2-3.16,2.71-2.11a1.7,1.7,0,0,0,.45-1.65,13.58,13.58,0,0,1-.6-4.21,1.32,1.32,0,0,0-.9-1.35l-3.16-1.2L58,32.41l3.46.45A1.32,1.32,0,0,0,63,32.11a11,11,0,0,1,2.41-3.46,1.37,1.37,0,0,0,.3-1.65l-1.35-3.16,3.16-2,2.11,2.71a1.7,1.7,0,0,0,1.66.45,13.61,13.61,0,0,1,4.22-.6,1.32,1.32,0,0,0,1.35-.9l1.35-3,3.61.9-.45,3.46a1.32,1.32,0,0,0,.75,1.5,11,11,0,0,1,3.46,2.41,1.38,1.38,0,0,0,1.66.3l3.16-1.35,2,3.16L89.6,33a1.7,1.7,0,0,0-.45,1.65,13.58,13.58,0,0,1,.6,4.21,1.32,1.32,0,0,0,.9,1.35l3.16,1.2Z" transform="translate(-0.7 -0.19)" fill="#183651"/><path d="M75.45,50.16A11.43,11.43,0,1,0,64,38.73,11.44,11.44,0,0,0,75.45,50.16Z" transform="translate(-0.7 -0.19)" fill="#f2c35e"/><path d="M76.5,34.67c-.3,0-.6-.15-1.05-.15a4.12,4.12,0,0,0-.9,8.12,4.14,4.14,0,0,0,5-3A4,4,0,0,0,76.5,34.67Z" transform="translate(-0.7 -0.19)" fill="#fff"/><path d="M77.26,31.81a5.65,5.65,0,0,0-1.66-.15,7.1,7.1,0,0,0-6.93,5.42,7.2,7.2,0,0,0,5.27,8.57,5.65,5.65,0,0,0,1.66.15,7.37,7.37,0,0,0,6.93-5.42A7.2,7.2,0,0,0,77.26,31.81Zm2.26,7.82a4.14,4.14,0,0,1-5,3,4.12,4.12,0,0,1,.9-8.12c.45,0,.75.15,1.05.15A4,4,0,0,1,79.52,39.63Z" transform="translate(-0.7 -0.19)" fill="#183651"/></svg>