<svg xmlns="http://www.w3.org/2000/svg" width="48" height="34" viewBox="0 0 48 34"><path d="M15.07,30.41A3.31,3.31,0,0,1,11.47,34a3.32,3.32,0,0,1-3.62-3.59V25.34h1v5.07a2.43,2.43,0,0,0,2.64,2.64,2.41,2.41,0,0,0,2.62-2.64V25.34h1Z" fill="#5aa932"/><path d="M6.59,26.29H2.11v3h4v.95h-4V34h-1V25.34H6.59Z" fill="#5aa932"/><path d="M22.23,34H17.48V25.34h1V33h3.77Z" fill="#5aa932"/><path d="M28.58,34H23.83V25.34h1V33h3.77Z" fill="#5aa932"/><path d="M37.67,34H35.49V30.61H31.92V34H29.74V25.34h2.19v3.54h3.56V25.34h2.19Z" fill="#5aa932"/><path d="M43,34H39.39V29h2.19v3.21h1.56a2.33,2.33,0,0,0,2.3-2.55A2.39,2.39,0,0,0,43,27.09H39.39V25.34h3.7a4.23,4.23,0,0,1,4.57,4.3C47.66,32.19,45.77,34,43,34Z" fill="#5aa932"/><path d="M43.09,25.34h-3.7v1.75H43a2.39,2.39,0,0,1,2.4,2.57,2.33,2.33,0,0,1-2.3,2.55H41.58V29H39.39v5H43c2.76,0,4.66-1.76,4.66-4.3A4.23,4.23,0,0,0,43.09,25.34Z" fill="#5aa932"/><path d="M14.08,30.41a2.41,2.41,0,0,1-2.62,2.64,2.43,2.43,0,0,1-2.64-2.64V25.34h-1v5.07A3.32,3.32,0,0,0,11.47,34a3.31,3.31,0,0,0,3.6-3.59V25.34h-1Z" fill="#5aa932"/><polygon points="1.12 33.95 2.11 33.95 2.11 30.26 6.12 30.26 6.12 29.32 2.11 29.32 2.11 26.29 6.59 26.29 6.59 25.34 1.12 25.34 1.12 33.95" fill="#5aa932"/><polygon points="35.49 28.89 31.93 28.89 31.93 25.34 29.74 25.34 29.74 33.95 31.93 33.95 31.93 30.61 35.49 30.61 35.49 33.95 37.67 33.95 37.67 25.34 35.49 25.34 35.49 28.89" fill="#5aa932"/><path d="M24.89,8.73c.95,0,1.47-.41,1.47-1.14s-.52-1.18-1.47-1.18-1.47.42-1.47,1.18S23.94,8.73,24.89,8.73Z" fill="#5aa932"/><path d="M34.68,6.63c-1.31,0-1.86.95-1.86,3.28s.55,3.29,1.86,3.29,1.85-1,1.85-3.29S36,6.63,34.68,6.63Z" fill="#5aa932"/><path d="M15.11,6.63c-1.31,0-1.86.95-1.86,3.28s.55,3.29,1.86,3.29S17,12.24,17,9.91,16.39,6.63,15.11,6.63Z" fill="#5aa932"/><path d="M24.89,10.59c-1.12,0-1.73.48-1.73,1.33s.61,1.34,1.73,1.34,1.75-.47,1.75-1.34S26,10.59,24.89,10.59Z" fill="#5aa932"/><path d="M42.54,10.8h-.89v1.68h.89c.59,0,.93-.29.93-.85S43.13,10.8,42.54,10.8Z" fill="#5aa932"/><path d="M47,0H1A1,1,0,0,0,0,1V19.78a1,1,0,0,0,1,1H47a1,1,0,0,0,1-1V1A1,1,0,0,0,47,0ZM8.56,15H6V6.89H4.09V4.81H8.56Zm6.55.07c-2.91,0-4.53-1.85-4.53-5.18s1.62-5.17,4.53-5.17,4.5,1.85,4.5,5.17S18,15.09,15.11,15.09Zm9.78,0c-2.55,0-4.18-1.15-4.18-3a2.85,2.85,0,0,1,1.94-2.62,2.57,2.57,0,0,1-1.41-2.18c0-1.63,1.43-2.67,3.64-2.67s3.65,1.06,3.65,2.74a2.39,2.39,0,0,1-1.28,2.11,2.79,2.79,0,0,1,1.82,2.58C29.06,14,27.43,15.13,24.89,15.13Zm9.79,0c-2.91,0-4.53-1.85-4.53-5.18s1.62-5.17,4.53-5.17,4.5,1.85,4.5,5.17S37.56,15.09,34.68,15.09Zm7.93-1.56h-1V15H40.32V9.74h2.3c1.35,0,2.12.66,2.12,1.84A1.86,1.86,0,0,1,42.61,13.53Z" fill="#5aa932"/><polygon points="24.81 25.34 23.83 25.34 23.83 33.95 28.58 33.95 28.58 33.02 24.81 33.02 24.81 25.34" fill="#5aa932"/><polygon points="18.46 25.34 17.48 25.34 17.48 33.95 22.23 33.95 22.23 33.02 18.46 33.02 18.46 25.34" fill="#5aa932"/></svg>