<svg xmlns="http://www.w3.org/2000/svg" width="200" height="155.6"><path fill="#231f20" d="M196 153.4v.4h.5v-.2-.2h-.2zm.3-.3l.5.1c.2.1.1.2.1.4l-.1.3-.4.2.5.5h-.4l-.4-.5h-.2v.5h-.3v-1.5zm0 2h.4a1.3 1.3 0 0 0 .7-.7 1.3 1.3 0 0 0-.3-1.4l-.4-.3h-.5a1.2 1.2 0 0 0-.9.3l-.3.4v1l.3.4.4.2.5.1m0-2.9a1.6 1.6 0 0 1 1.2.5 1.6 1.6 0 0 1 .3 1.8 1.7 1.7 0 0 1-.8.9l-.7.1a1.7 1.7 0 0 1-1.7-1.6c0-.2 0-.5.2-.7a1.6 1.6 0 0 1 .9-.8l.6-.2m-153-5.8c0-2.9 1.8-5.2 4.9-5.2 3 0 5 2.2 5 5.2s-2 5.3-5 5.3c-3.1 0-5-2.4-5-5.3m13.3 0v-8.2h-3.6v2a6.2 6.2 0 0 0-5.2-2.4c-4.6 0-8.2 3.6-8.2 8.6s3.6 8.6 8.2 8.6c2.4 0 4-.9 5.2-2.4v2h3.6zm120.6 0c0-2.9 1.9-5.2 5-5.2 2.9 0 4.9 2.2 4.9 5.2s-2 5.3-5 5.3-5-2.4-5-5.3m13.4 0v-14.8h-3.6v8.6a6.2 6.2 0 0 0-5.2-2.4c-4.6 0-8.2 3.6-8.2 8.6s3.6 8.6 8.2 8.6c2.3 0 4-.9 5.2-2.4v2h3.6zm-89.6-5.4c2.3 0 3.8 1.4 4.1 4h-8.5c.4-2.4 1.8-4 4.4-4m0-3.2c-4.8 0-8.1 3.5-8.1 8.6 0 5.2 3.5 8.6 8.4 8.6a10 10 0 0 0 6.7-2.3l-1.7-2.6a7.8 7.8 0 0 1-4.8 1.7c-2.3 0-4.4-1-5-4h12.3v-1.4c0-5.1-3.1-8.6-7.7-8.6m43 8.6c0-2.9 2-5.2 5-5.2s5 2.2 5 5.2-2 5.3-5 5.3-5-2.4-5-5.3m13.3 0v-8.2h-3.5v2a6.2 6.2 0 0 0-5.2-2.4c-4.6 0-8.2 3.6-8.2 8.6s3.6 8.6 8.2 8.6c2.3 0 4-.9 5.2-2.4v2h3.5zm-33.4 0c0 5 3.5 8.6 8.7 8.6 2.5 0 4.2-.5 6-2l-1.8-2.8a7.2 7.2 0 0 1-4.3 1.5c-2.8 0-5-2.1-5-5.3s2.2-5.2 5-5.2c1.6 0 3 .5 4.3 1.4l1.7-2.8a8.6 8.6 0 0 0-5.9-2c-5.2 0-8.7 3.6-8.7 8.6m46-8.6c-2 0-3.4 1-4.3 2.4v-2h-3.6v16.4h3.6v-9.2c0-2.7 1.2-4.2 3.5-4.2.7 0 1.5.1 2.2.4l1.1-3.4c-.8-.3-1.8-.4-2.5-.4M74 139.5c-1.7-1.1-4-1.7-6.7-1.7-4.1 0-6.8 2-6.8 5.3 0 2.6 2 4.3 5.7 4.8l1.7.2c2 .3 2.8.8 2.8 1.8 0 1.2-1.3 2-3.7 2-2.5 0-4.3-.8-5.5-1.8L60 153c2 1.4 4.4 2.1 7 2.1 4.8 0 7.6-2.2 7.6-5.3 0-3-2.2-4.4-5.8-5l-1.7-.2c-1.5-.2-2.7-.5-2.7-1.6 0-1.2 1.1-2 3-2 2.2 0 4.2.9 5.2 1.5zm46-1.7c-2 0-3.3 1-4.2 2.4v-2h-3.6v16.4h3.6v-9.2c0-2.7 1.2-4.2 3.5-4.2.7 0 1.5.1 2.2.4l1.1-3.4c-.8-.3-1.8-.4-2.5-.4m-30.5.4h-5.8v-5h-3.6v5h-3.3v3.3h3.3v7.5c0 3.8 1.5 6 5.7 6 1.5 0 3.3-.4 4.4-1.2l-1-3c-1 .5-2.2.8-3.1.8-1.8 0-2.4-1-2.4-2.7v-7.4h5.8zm-53.3 16.4v-10.3c0-3.9-2.5-6.5-6.5-6.5-2 0-4.2.6-5.7 3a6 6 0 0 0-5.5-3c-1.7 0-3.4.5-4.8 2.4v-2h-3.5v16.4h3.6v-9c0-3 1.5-4.4 4-4.4 2.3 0 3.5 1.5 3.5 4.3v9.1H25v-9c0-3 1.7-4.4 4-4.4 2.5 0 3.7 1.5 3.7 4.3v9.1z"/><path fill="#f79410" d="M198.1 100v-2.3h-.6l-.7 1.6-.7-1.6h-.7v2.3h.5v-1.8l.7 1.6h.4l.7-1.6v1.8zm-4 0v-2h.9v-.3h-2v.4h.7v2z"/><path fill="#ff5f00" d="M127 110.4H73V13.2h54z"/><path fill="#eb001b" d="M76.5 61.8c0-19.8 9.2-37.3 23.6-48.6a61.8 61.8 0 1 0 0 97.2 61.7 61.7 0 0 1-23.6-48.6"/><path fill="#f79e1b" d="M200 61.8a61.8 61.8 0 0 1-100 48.6 61.7 61.7 0 0 0 0-97.2 61.8 61.8 0 0 1 100 48.6"/></svg>