<svg xmlns="http://www.w3.org/2000/svg" width="860" height="410" viewBox="0 0 860 410"><path d="M430,273.33h33.07V143.5H430C439.85,191.92,440.56,220.32,430,273.33Z" fill="#fff"/><polygon points="581.16 221.4 515.56 143.5 492.59 143.5 492.59 273.33 515.56 273.33 515.56 185.7 581.16 273.33 604.13 273.33 604.13 143.5 581.16 143.5 581.16 221.4" fill="#fff"/><polygon points="640.21 273.33 728.78 273.33 728.78 250.61 669.74 250.61 669.74 218.15 722.22 218.15 722.22 192.19 669.74 192.19 669.74 166.22 728.78 166.22 728.78 143.5 640.21 143.5 640.21 273.33" fill="#fff"/><polygon points="748.47 143.5 748.47 166.22 791.75 166.22 791.75 273.33 816.64 273.33 816.64 166.22 860 166.22 860 143.5 748.47 143.5" fill="#fff"/><ellipse cx="206.28" cy="205" rx="206.28" ry="205" fill="#af2a32"/><ellipse cx="142.58" cy="205" rx="39.44" ry="42.21" fill="none"/><path d="M142.58,138.68c-35.18,0-63.7,29.69-63.7,66.32s28.52,66.32,63.7,66.32,63.7-29.69,63.7-66.32S177.76,138.68,142.58,138.68Zm0,108.53c-21.78,0-39.44-18.9-39.44-42.21s17.66-42.21,39.44-42.21S182,181.69,182,205,164.36,247.21,142.58,247.21Z" fill="#fff"/><polygon points="333.69 138.68 303.35 138.68 254.82 186.91 254.82 138.68 230.55 138.68 230.55 271.32 254.82 271.32 254.82 217.06 303.35 271.32 333.69 271.32 279.08 198.97 333.69 138.68" fill="#fff"/></svg>