<svg xmlns="http://www.w3.org/2000/svg" width="793" height="518.4" viewBox="0 0 793 518.4"><path fill="none" d="M412.8 304.8l2-39.4h-85.9v6.5a6 6 0 0 1-6 6.1h-15.3a5.5 5.5 0 0 1 .6.4l3 2a6.2 6.2 0 0 1 2.9 5.2V300a6 6 0 0 1-5.1 6h4.4a3.8 3.8 0 0 1 1.2.2 2.7 2.7 0 0 1 1.4.4h.2a1 1 0 0 1 .5.3l3 2a5.7 5.7 0 0 1 1 .8l.1.2a6 6 0 0 1 1.7 3.6h85.1c2.7-2.9 4.5-6 4.5-8.6z"/><path fill="#353031" d="M479.4 313.4a41 41 0 0 0 10.3 8.1 7.6 7.6 0 0 1 3.8 5.8c3.2.4 5 1 5 1.5 0 2-24.7 3.7-55 3.7s-55-1.7-55-3.7c0-.6 1.7-1 4.9-1.5a7 7 0 0 1 3.8-5.8 41.2 41.2 0 0 0 10.4-8.1h-85V328a5.7 5.7 0 0 1-.3 1.6c36.5.7 62.7 2.4 62.7 4.4 0 1.5-14.5 2.9-36.9 3.7h238.3l20.8 15.8a5.6 5.6 0 0 1-1.9 4c1.5.2 2.3.4 2.3.6 0 2.1-73.3 3.8-163.6 3.8s-163.6-1.7-163.6-3.7c0-.3.7-.5 2-.6a5.7 5.7 0 0 1-1.9-4l19.6-15h-10.3c-48.2 0-88-1.7-94.3-4h-28.2a33.6 33.6 0 0 1-16.5 18c17.2.5 28.9 1.8 28.9 3.2 0 2-24.7 3.7-55.2 3.7s-55.2-1.7-55.2-3.7c0-1.4 11.6-2.7 28.7-3.3a33.5 33.5 0 0 1-18.8-30v-9.1h-1L0 373.4h793v-60zm188.4 32.3h-.3a.4.4 0 0 1 .2.3c0 1.3-10.1 2.4-22.6 2.4s-22.5-1.1-22.5-2.4a.4.4 0 0 1 .1-.3v-1.6a21.4 21.4 0 0 1 21.4-21.3h2.2a21.6 21.6 0 0 1 21.5 21.3z"/><path fill="#161314" d="M318.9 333.5a6 6 0 0 1-3.6 1.2H195.5c6.4 2.3 46.2 4 94.3 4H300l1.3-1h46.8c22.4-.9 36.8-2.2 36.8-3.7 0-2-26.1-3.8-62.7-4.4a6.2 6.2 0 0 1-3.4 4z"/><path fill="#231f20" d="M0 398.4h793v-25H0v25z"/><path fill="#333" d="M81 412.4h712v106H81z"/><path fill="#161314" d="M81 398.4h712v14H81zM282.8 358l-.3-.4c-1.4.2-2 .4-2 .6 0 2 73.2 3.7 163.5 3.7s163.6-1.7 163.6-3.7c0-.2-.8-.4-2.3-.6l-.3.3z"/><path fill="#e0e0e0" d="M300.1 338.7l-19.6 14.8h326.7l-20.8-15.8h-285zm27.8 1.8h10.5l-3.9 4.7h-10.8zm-5.5 4.7h-11l4.8-4.7h10.5zm-20-4.7H315l-4.8 4.7H296zm-13.6 10.2l6.1-4.6h14.4l-4.8 4.6zm17 0l4.8-4.6h11l-4.4 4.6zm12.6 0l4.4-4.6h11l-3.8 4.6zm12.8 0l3.8-4.6h11.2l-3.6 4.6zm12.6 0l3.4-4.6h11.1l-3 4.6zm12.7 0l3-4.6h11.2l-2.7 4.6zm12.6 0l2.7-4.6h11.1l-2.1 4.6zm12.6 0l2.3-4.6H395l-1.7 4.6zm12.8 0l1.7-4.6h11.3l-1.4 4.6zm24.4 0H407l1.3-4.6h11.3zm12.6 0h-11.8l.8-4.6H432zm26.1 0l-.4-4.6h11.3l1 4.6zm12.8 0l-1-4.6h11.3l1.3 4.6zm12.6 0l-1.2-4.6H493l1.7 4.6zm12.7 0l-1.7-4.6h11.3l2 4.6zm12.7 0l-2-4.6h11l2.7 4.6zm12.8 0l-2.7-4.6h11.2l3 4.6zm12.6 0l-3-4.6h11l3.5 4.6zm12.7 0l-3.5-4.6h11l4 4.6zm12.8 0l-4-4.6h11l4.3 4.6zm12.7 0l-4.4-4.6h10.9l4.8 4.6zm20.8-4.7l6.1 4.8h-14.4l-4.8-4.7h13zm-7.3-5.5l6.1 4.7h-12.8l-4.8-4.7zm-12.7 0l4.8 4.7h-11l-4.2-4.7zm-11.7 0l4.4 4.7h-11l-4-4.7zm-11.7 0l3.9 4.7h-11l-3.4-4.7zm-11.6 0l3.4 4.7h-11l-3-4.7zm-11.7 0l3 4.7H518l-2.6-4.7zm-11.8 0l2.6 4.7h-11.2l-2.1-4.7zm-11.7 0l2.3 4.7h-11.4l-1.7-4.7zm-11.7 0l1.7 4.7h-11.2l-1.3-4.7zm-11.7 0l1.2 4.7h-11.2l-1-4.7zm-11.8 0l1 4.7H457l-.4-4.7zm-22.3 0h10.6l.4 4.7h-11zm0 5.6h11.2l.4 4.6H445zm-.9 4.6h-11.9l.6-4.6H444zm-10.9-10.2h10.9v4.7h-11.3zm-11.6 0h10.7l-.4 4.7h-11.2zm-1 0l-1 4.7h-11.1l1.3-4.7zm-11.7 0l-1.3 4.7h-11.3l1.7-4.7zm-11.8 0l-1.7 4.7h-11.2l2.1-4.7zm-11.6 0l-2.3 4.7H372l2.6-4.7zm-11.9 0l-2.7 4.7h-11l3-4.7zm-11.8 0l-2.9 4.7h-11.2l3.6-4.7zm-15.1 4.7h-11l3.9-4.7h10.6z"/><path fill="#231f20" d="M383.3 345.2l2.2-4.7h-10.7l-2.7 4.7h11.2zM371 345.2l2.7-4.7h-10.6l-3.1 4.7h11zM432.3 340.5h-10.7l-.8 4.7h11.1l.4-4.7zM395.4 345.2l1.8-4.7h-10.8l-2.1 4.7h11.1zM407.7 345.2l1.3-4.7h-10.9l-1.7 4.7h11.3zM419.7 345.2l1-4.7h-10.8l-1.3 4.7h11.1zM335.7 345.2h11.1l3.4-4.7h-10.6l-3.9 4.7zM311.5 345.2h10.8l4.4-4.7h-10.5l-4.7 4.7zM359 345.2l2.9-4.7h-10.5l-3.6 4.7H359zM310.5 346.1l-4.7 4.7h11.4l4.4-4.7h-11.1zM444.1 340.5h-10.8l-.4 4.7h11.2v-4.7zM338.4 340.5h-10.5l-4.2 4.7h10.9l3.8-4.7zM504.8 345.2l-2.3-4.7h-10.7l1.7 4.7h11.3zM541.1 345.2l-3.4-4.7h-10.6l3 4.7h11zM553.2 345.2l-3.8-4.7h-10.5l3.4 4.7h10.9zM565.4 345.2l-4.4-4.7h-10.4l3.9 4.7h10.9zM529.1 345.2l-3.1-4.7h-10.7l2.6 4.7h11.2zM577.5 345.2l-4.8-4.7h-10.3l4.2 4.7h10.9zM468.3 345.2l-.9-4.7h-10.8l.4 4.7h11.3zM480.4 345.2l-1.2-4.7h-10.9l.9 4.7h11.2zM455.7 340.5h-10.6v4.7h11l-.4-4.7zM492.6 345.2l-1.7-4.7h-10.8l1.3 4.7h11.2zM516.9 345.2l-2.7-4.7h-10.6l2.1 4.7h11.2zM322.7 346.1l-4.3 4.7h11.5l3.9-4.7h-11.1zM555.2 346.1l4 4.7h11.4l-4.4-4.7h-11zM518.5 346.1l2.6 4.7h11.5l-3-4.7h-11.1zM530.6 346.1l3.1 4.7h11.6l-3.5-4.7h-11.2zM506.2 346.1l2.2 4.7H520l-2.6-4.7h-11.2zM493.9 346.1l1.7 4.7h11.7l-2.1-4.7h-11.3zM543 346.1l3.5 4.7H558l-4-4.7h-11zM584.5 350.8h14.4l-6.1-4.8v.1h-13l4.7 4.7zM314.9 340.5h-12.6l-6.2 4.7h14l4.8-4.7zM294.9 346.1l-6.1 4.7h15.6l4.8-4.7h-14.3zM481.7 346.1l1.2 4.7h11.8l-1.7-4.7h-11.3zM567.5 346.1l4.4 4.7h11.3l-4.8-4.7h-10.9zM591.6 345.2l-6.1-4.7H574l4.8 4.7h12.8zM334.9 346.1l-3.8 4.7h11.4l3.6-4.7h-11.2zM383.9 346.1l-2.3 4.7h11.7l1.8-4.7h-11.2zM371.7 346.1l-2.6 4.7h11.6l2.2-4.7h-11.2zM396.1 346.1l-1.7 4.7h11.7l1.3-4.7h-11.3zM359.4 346.1l-3 4.7H368l2.6-4.7h-11.2zM347.2 346.1l-3.5 4.7h11.6l3-4.7h-11.1zM407 350.8h11.8l.8-4.7h-11.3l-1.3 4.7zM457.1 346.1l.5 4.7h11.8l-1-4.7h-11.3zM456.2 346.1h-11.1v4.7h11.5l-.4-4.7zM419.7 350.8h11.7l.5-4.7h-11.4l-.8 4.7zM469.4 346.1l.9 4.7H482l-1.4-4.7h-11.2zM432.3 350.8h11.8v-4.7h-11.2l-.6 4.7z"/><path fill="#b7b7b7" d="M280.6 353.5a5.7 5.7 0 0 0 1.9 4l.3.4H605l.4-.3a5.6 5.6 0 0 0 1.9-4H280.6z"/><path fill="#161314" d="M622.6 346c0 1.3 10 2.4 22.5 2.4s22.6-1.1 22.6-2.4a.4.4 0 0 0-.2-.3h-44.8a.4.4 0 0 0-.1.3z"/><path fill="#e0e0e0" d="M646.3 322.8h-2.2a21.4 21.4 0 0 0-21.4 21.3v1.6h45.1v-1.6a21.6 21.6 0 0 0-21.5-21.4z"/><path fill="#ff508f" d="M318.9 333.5a6 6 0 0 1-2.5.5h-24l-74.2-28h-48.6v16.5a33.3 33.3 0 0 1-2.3 12.2h148a6 6 0 0 0 3.6-1.2z"/><path fill="#43d6cb" d="M307.4 278.4l3 2a5.7 5.7 0 0 1 1 .8v.1a6.1 6.1 0 0 1 1.8 4.2V300a6.2 6.2 0 0 1-6.1 6h1.9a6 6 0 0 0 5.1-6v-14.3a6.2 6.2 0 0 0-2.8-5.2l-3-2a5.5 5.5 0 0 0-.7-.4h-.8v.1a1 1 0 0 1 .6.3zM218 306h44.8L195 278h-29a17.3 17.3 0 0 1-.7 5.5l4.2-.2V306h48.7z"/><path fill="#231f20" d="M149.8 252.6c0 2.8-.1 5.4-.3 8 3.6-3.2 7.1-6 8.6-8.2l.3-1a5 5 0 0 0 0 .6 4.6 4.6 0 0 0 .2-.5c-.7 2.4.4 7 1.4 12.2 1.8-1.6 3.3-3 3.7-4.3-.9 3.3 2.2 11.4 2.4 18.6h29l-.5-.2h111.7l.4.2h16.1a6 6 0 0 0 6.1-6v-6.6h-65c-11.6 0-21-6.8-21-15.1v-1h-93.2l.1 3v.3z"/><path fill="#161314" d="M112.7 356a33.2 33.2 0 0 1-14.7-3.5c-17.1.7-28.7 1.9-28.7 3.3 0 2 24.7 3.7 55.2 3.7s55.2-1.7 55.2-3.7c0-1.4-11.7-2.7-28.9-3.3a33.2 33.2 0 0 1-14.6 3.4z"/><path fill="#8dc63f" d="M99.3 248c-7.2-7-15.4-12.7-17-16.8l.1.5c2.1 4.2 10 9.7 16.9 16.4zM82.5 232.1c1 8-7.7 28.2-3.1 41.8a54.9 54.9 0 0 0 4.2 9.7c7 .7 8.6 3 17.4 3.2z"/><path fill="#70a02e" d="M102 286.8a42 42 0 0 0 4.3-.2 77 77 0 0 1-7.3-34 35.4 35.4 0 0 1 .3-4.5c-7-6.7-14.8-12.2-16.9-16.3l-.3-.6.4 1 18.5 54.6z"/><path fill="#8dc63f" d="M160 263.7c-1-5.2-2.2-9.8-1.5-12.2a4.6 4.6 0 0 1-.2.5c-.3 2.6.8 6.9 1.7 11.7zM147.7 277.6a18.4 18.4 0 0 1 4-6.2l6.4-19c-1.5 2.3-5 5-8.6 8.2a73 73 0 0 1-7 26l3.5.2a29.4 29.4 0 0 1 1.7-9.2z"/><path fill="#70a02e" d="M160 263.7c-1-4.8-2-9.1-1.7-11.7a5 5 0 0 1 .1-.6l-.3 1-6.5 19a98.4 98.4 0 0 1 8.4-7.7z"/><path fill="#8dc63f" d="M166 278c0-7.2-3.2-15.3-2.2-18.5-1.2 4 4.1 16 1.5 24a17.3 17.3 0 0 0 .8-5.5zM163.7 259.5c-.4 1.2-1.9 2.6-3.7 4.2a98.4 98.4 0 0 0-8.4 7.7 18.4 18.4 0 0 0-4 6.2 29.4 29.4 0 0 0-1.6 9.2h1a35 35 0 0 0 7.5-.7z"/><path fill="#70a02e" d="M163.8 259.5l-9.2 26.6c3.7-.8 6-2 10.7-2.6 2.6-8-2.7-20-1.6-24z"/><path fill="#8dc63f" d="M149.8 252.4l-.1-3c-2-22.3-24.7-47.1-25.2-58.1l-.1.6c1.3 11.8 25.3 37.7 25.4 60.5zM99 252.6c0 17.3 4.8 29.1 7.3 34 7.1-.8 8.6-3.3 18-3.3v-90.9c-1.8 11.3-22.2 34.4-25 55.5v.2a35.4 35.4 0 0 0-.3 4.5z"/><path fill="#70a02e" d="M124.5 283.4c9.5 0 11 2.5 18 3.2a73 73 0 0 0 7-26c.2-2.5.3-5.2.3-8v-.2c-.1-22.8-24-48.6-25.4-60.5v-.6 92z"/><path fill="#8b5e3c" d="M169.6 291.7v-8.3c-1.6 0-3 0-4.2.2h-.1c-4.8.5-7 1.7-10.7 2.5a35 35 0 0 1-7.6.7h-1a31 31 0 0 1-3.4-.2c-7-.7-8.5-3.2-18-3.2h-.2c-9.5 0-11 2.5-18 3.2a42 42 0 0 1-4.4.2h-1c-8.8-.1-10.4-2.5-17.4-3.2a42.2 42.2 0 0 0-4.3-.2v8.4z"/><path fill="#e0e0e0" d="M98 352.5a33.2 33.2 0 0 0 14.7 3.4H136a33.2 33.2 0 0 0 14.7-3.4 33.6 33.6 0 0 0 16.5-17.8 33.3 33.3 0 0 0 2.3-12.2v-25.2H79.4v-5.6h-.2v30.8a33.5 33.5 0 0 0 18.8 30z"/><path fill="#b7b7b7" d="M169.6 297.3v-5.6H79.4v5.6h90.2z"/><path fill="#39b9af" d="M307.1 306a6.2 6.2 0 0 0 6-6.2v-14.3a6.1 6.1 0 0 0-1.6-4.2l-.2-.1a5.7 5.7 0 0 0-.9-.8l-3-2a1 1 0 0 0-.5-.3h-.1v-.1l-.5-.2H194.7l.4.2 67.8 28z"/><path fill="#dc4179" d="M320.7 309.6a5.7 5.7 0 0 0-1-.8l-3-2a1 1 0 0 0-.5-.2l-.2-.2a2.7 2.7 0 0 0-1.4-.3 3.8 3.8 0 0 0-1.2-.2H218l.2.1 74.2 28h24a6 6 0 0 0 2.5-.5 6.2 6.2 0 0 0 3.4-3.9 5.7 5.7 0 0 0 .3-1.6v-14-.6a6 6 0 0 0-1.7-3.7z"/><path fill="#161314" d="M493.6 328.1H393.4v-.2-.6c-3.2.4-5 1-5 1.5 0 2 24.7 3.7 55 3.7s55-1.7 55-3.7c0-.6-1.7-1-4.9-1.6v.7z"/><path fill="#e0e0e0" d="M414.8 265.4h-.1l-1.9 39.4 30.7 1.6 30.8-1.6-1.6-31.1h-58.3l.4-8.3z"/><path fill="#e0e0e0" d="M412.8 304.8h-.7c0 2.6-1.8 5.7-4.5 8.6a41.2 41.2 0 0 1-10.4 8.1 7 7 0 0 0-3.8 5.8V328.2h100.2v-.3-.6a7.6 7.6 0 0 0-3.8-5.8 41 41 0 0 1-10.4-8.1c-2.7-3-4.6-6-4.6-8.7h-.5l-30.8 1.7z"/><path fill="#b7b7b7" d="M414.8 265.4l-.4 8.3h58.3l-.4-8.3h-57.5z"/><path fill="#e0e0e0" d="M263.8 265.4h359.4c11.5 0 21-6.8 21-15.1v-25.4h-401v-.1h-.2v25.5c0 8.3 9.3 15 20.8 15zm177.3-28.1a8.5 8.5 0 1 1-8.5 8.4 8.5 8.5 0 0 1 8.5-8.4z"/><path fill="#231f20" d="M644.1 225V20.5A20.8 20.8 0 0 0 623.4 0H263.8a20.7 20.7 0 0 0-20.7 20.7V225zM629 15.3v193.5H259V15.4z"/><path fill="#fff" d="M444 158.7q9.6 0 13.8-7.4t4.4-22.8V97.4q0-16.3-4.5-23.6t-13.8-7.4q-9.1 0-13.5 7t-4.6 22v31.8q0 16 4.3 23.8t14 7.7zM556.3 82.5l-1.7 3-27.1 43.2h28.8V82.5zM345.6 82.5l-1.7 3-27.1 43.2h28.8V82.5z"/><path fill="#fff" d="M259 209h370V15.3H259zM556 47.1h26.1v81.5H597v20.9h-14.8v28.2h-26v-28.2h-53.4l-1.1-16.4zm-156 54q0-27.5 11.2-41.6t32.7-14.2q21.3 0 32.6 14T488 99.9v24q0 27-11.2 41.4T444 179.6q-21.3 0-32.6-14.1T400 125.1zm-54.6-54h26.1v81.5h14.8v20.9h-14.8v28.2h-25.9v-28.2h-53.4l-1.2-16.4z"/><circle cx="441.1" cy="245.7" r="8.5" fill="#b7b7b7"/><path fill="#b0222a" d="M345.6 149.6v28.2h26v-28.2h14.7v-21h-14.8V47.3h-26.1l-54.4 86 1.2 16.4zM344 85.5l1.7-3v46.1h-28.8zM444 179.6q21.7 0 32.8-14.3t11.2-41.5v-24q-.3-26.3-11.6-40.3T444 45.4q-21.3 0-32.7 14.2T399.9 101v24q.3 26.3 11.6 40.4t32.6 14.1zm-18.2-84.1q.3-15 4.6-22t13.5-7.1q9.4 0 13.8 7.4t4.5 23.6v31q-.2 15.3-4.4 22.8t-13.7 7.4q-9.6 0-14-7.7t-4.3-23.8zM556.3 149.6v28.2h25.9v-28.2H597v-21h-14.8V47.3H556l-54.4 86 1.2 16.4zm-1.7-64.1l1.7-3v46.1h-28.8z"/></svg>