<?xml version="1.0" standalone="no"?>
<!DOCTYPE svg PUBLIC "-//W3C//DTD SVG 20010904//EN"
 "http://www.w3.org/TR/2001/REC-SVG-20010904/DTD/svg10.dtd">
<svg version="1.0" xmlns="http://www.w3.org/2000/svg"
 width="413.000000pt" height="413.000000pt" viewBox="0 0 413.000000 413.000000"
 preserveAspectRatio="xMidYMid meet">
<metadata>
Created by potrace 1.11, written by Peter Selinger 2001-2013
</metadata>
<g transform="translate(0.000000,413.000000) scale(0.100000,-0.100000)"
fill="#000000" stroke="none">
<path d="M1890 4117 c-3 -3 -36 -7 -75 -11 -149 -14 -365 -69 -528 -135 -584
-235 -1038 -738 -1211 -1342 -51 -180 -68 -301 -71 -519 -5 -315 37 -554 145
-815 36 -87 123 -252 179 -337 308 -472 801 -803 1346 -902 44 -8 96 -18 115
-21 19 -4 125 -8 235 -10 232 -4 363 10 560 60 609 154 1138 610 1379 1187 53
127 80 210 111 343 24 102 28 126 44 275 13 119 5 396 -14 486 -3 12 -7 39
-11 60 -11 75 -56 240 -91 334 -216 590 -691 1048 -1290 1246 -211 70 -369 96
-613 101 -113 2 -208 2 -210 0z"/>
</g>
</svg>
