<svg xmlns="http://www.w3.org/2000/svg" width="48" height="34" viewBox="0 0 48 34"><path d="M43.11,15.16a.94.94,0,0,1-.66-.27,26.36,26.36,0,0,0-36.91,0,1,1,0,0,1-1.32,0L.27,11a.91.91,0,0,1,0-1.3A33.59,33.59,0,0,1,24,0,33.59,33.59,0,0,1,47.73,9.69a.91.91,0,0,1,0,1.3l-4,3.9A1,1,0,0,1,43.11,15.16Z" fill="#5aa932"/><path d="M35.2,23a1,1,0,0,1-.66-.27,15.05,15.05,0,0,0-21.09,0,1,1,0,0,1-1.32,0l-4-3.9a.91.91,0,0,1,0-1.3,22.58,22.58,0,0,1,31.63,0,.91.91,0,0,1,0,1.3l-4,3.9A.92.92,0,0,1,35.2,23Z" fill="#5aa932"/><path d="M24,34a.94.94,0,0,1-.66-.27l-7.25-7.15a.91.91,0,0,1,0-1.3,11.29,11.29,0,0,1,15.82,0,.91.91,0,0,1,0,1.3l-7.25,7.15A.93.93,0,0,1,24,34Z" fill="#5aa932"/></svg>