<svg xmlns="http://www.w3.org/2000/svg" xmlns:xlink="http://www.w3.org/1999/xlink" style="display:none"><symbol id="cam-icon"><path d="M19 2.15A1.7 1.7 0 0018 2a1.74 1.74 0 00-.88.43L15 4.45V3a3 3 0 00-.89-2.12A3 3 0 0012 0H3a3 3 0 00-3 3v8a3 3 0 003 3h9a3 3 0 002.12-.88A3 3 0 0015 11V9.55l2.16 2a1.72 1.72 0 001.16.45 1.65 1.65 0 00.69-.15 1.56 1.56 0 00.73-.59 1.63 1.63 0 00.27-.89V3.63a1.62 1.62 0 00-1-1.48zM13 11a1 1 0 01-.29.71A1 1 0 0112 12H3a1 1 0 01-.71-.29A1 1 0 012 11V3a1 1 0 01.29-.71A1 1 0 013 2h9a1 1 0 01.71.29A1 1 0 0113 3zm5-1.4L15.18 7 18 4.4z"/></symbol><symbol id="online-icon" viewBox="0 0 77 35"><path d="M30 8l.08 1.46a4.58 4.58 0 013.7-1.7q4 0 4 4.54v8.38h-2.85V12.5a2.58 2.58 0 00-.53-1.78 2.16 2.16 0 00-1.7-.59 2.73 2.73 0 00-2.56 1.56v9h-2.85V8zm13.72 12.72h-2.85v-18h2.85zm6.14 0H47V8h2.85zm-3-16a1.49 1.49 0 01.41-1.09 1.88 1.88 0 012.39 0 1.5 1.5 0 01.42 1.09 1.49 1.49 0 01-.42 1.08 1.91 1.91 0 01-2.39 0 1.49 1.49 0 01-.43-1.06zM55.61 8l.09 1.5a4.55 4.55 0 013.69-1.7q4 0 4 4.54v8.38h-2.82V12.5a2.58 2.58 0 00-.57-1.78 2.16 2.16 0 00-1.7-.59 2.74 2.74 0 00-2.56 1.56v9h-2.81V8zm16.3 13a5.92 5.92 0 01-4.39-1.7 6.22 6.22 0 01-1.68-4.55v-.35a7.66 7.66 0 01.73-3.4 5.66 5.66 0 012.06-2.34 5.51 5.51 0 013-.83 5 5 0 014 1.65A6.94 6.94 0 0177 14.13v1.15h-8.29a3.85 3.85 0 001.05 2.48 3.17 3.17 0 002.32.92 3.86 3.86 0 003.19-1.59l1.53 1.47a5.16 5.16 0 01-2 1.77 6.42 6.42 0 01-2.89.67zm-.34-10.86a2.38 2.38 0 00-1.89.82 4.21 4.21 0 00-.92 2.28h5.43V13a3.48 3.48 0 00-.76-2.16 2.4 2.4 0 00-1.86-.75z"/><g fill="#af2a32"><path d="M3 31.53h11V35H3zM17 35h3.06v-3.47l-3.06.02V35zM24 11.92a12 12 0 00-24 0A11.91 11.91 0 007.58 23L3 25.88V30l9.48-6.15 7.58 6v-4.28l-3.46-2.64A11.94 11.94 0 0024 11.92zm-12 5.83a5.92 5.92 0 116-5.92 6 6 0 01-6 5.92z"/><ellipse cx="12" cy="11.83" rx="3" ry="2.96"/></g></symbol><symbol id="right-arrow"><path d="M12 12L0 24v-4l8-8-8-8V0z"/></symbol><symbol id="scale-icon"><path d="M16 16h2v2h-2zM0 16a2 2 0 002 2h12V8H0zm4.5-3.21l1.79 2.15 2.5-3.22L12 16H2zM16 0h2v2h-2zm4 8h2v2h-2zm0 4h2v2h-2zM2 0a2.15 2.15 0 00-2 2h2zm18 4h2v2h-2zm-8-4h2v2h-2zm8 18a2.15 2.15 0 002-2h-2zM0 4h2v2H0zm8-4h2v2H8zM4 0h2v2H4zm16 0v2h2a2.15 2.15 0 00-2-2z"/></symbol><symbol id="tel-icon"><path d="M16.33 23.08s2.79 1.44 4.24.72A18.24 18.24 0 0024 20.75c.18-1.26-4.78-7.72-6.76-5.12a13.69 13.69 0 01-1.62 2c-2.44-.57-8.62-6.76-9.29-9.27a13.71 13.71 0 012-1.62C10.93 4.76 4.44-.17 3.18 0a14.82 14.82 0 00-3 3.5c-.7 1.35.74 4.23.74 4.23 2.35 5.2 10.19 12.93 15.41 15.35zm-5-19.84a.9.9 0 010-1.8 11.21 11.21 0 0111.22 11.14.9.9 0 01-1.8 0 9.35 9.35 0 00-9.37-9.34zm1.53 4.13a.9.9 0 010-1.8A5.45 5.45 0 0118.41 11a.86.86 0 11-1.71 0 3.73 3.73 0 00-3.79-3.63z"/></symbol><symbol id="user-icon"><path d="M14 15.65a7.73 7.73 0 007.64-7.82A7.73 7.73 0 0014 0a7.73 7.73 0 00-7.64 7.82A7.73 7.73 0 0014 15.65zM0 29.4a.64.64 0 00.64.6h26.72a.64.64 0 00.64-.65V28.1c0-5.27-3.44-9.79-10.18-9.79h-7.64C3.44 18.31 0 22.83 0 28.1z"/></symbol></svg>