<svg xmlns="http://www.w3.org/2000/svg" style="display:none"><symbol id="right-arrow"><path d="M12 12L0 24v-4l8-8-8-8V0z"/></symbol><symbol id="tel-icon"><path d="M16.33 23.08s2.79 1.44 4.24.72A18.24 18.24 0 0 0 24 20.75c.18-1.26-4.78-7.72-6.76-5.12a13.69 13.69 0 0 1-1.62 2c-2.44-.57-8.62-6.76-9.29-9.27a13.71 13.71 0 0 1 2-1.62C10.93 4.76 4.44-.17 3.18 0a14.82 14.82 0 0 0-3 3.5c-.7 1.35.74 4.23.74 4.23 2.35 5.2 10.19 12.93 15.41 15.35zm-5-19.84a.9.9 0 0 1 0-1.8 11.21 11.21 0 0 1 11.22 11.14.9.9 0 0 1-1.8 0 9.35 9.35 0 0 0-9.37-9.34zm1.53 4.13a.9.9 0 0 1 0-1.8A5.45 5.45 0 0 1 18.41 11a.86.86 0 1 1-1.71 0 3.73 3.73 0 0 0-3.79-3.63z"/></symbol><symbol id="user-icon"><path d="M14 15.65a7.73 7.73 0 0 0 7.64-7.82A7.73 7.73 0 0 0 14 0a7.73 7.73 0 0 0-7.64 7.82A7.73 7.73 0 0 0 14 15.65zM0 29.4a.64.64 0 0 0 .64.6h26.72a.64.64 0 0 0 .64-.65V28.1c0-5.27-3.44-9.79-10.18-9.79h-7.64C3.44 18.31 0 22.83 0 28.1z"/></symbol></svg>