<svg xmlns="http://www.w3.org/2000/svg" width="20" height="14" viewBox="0 0 20 14"><path d="M19,2.15A1.7,1.7,0,0,0,18,2a1.74,1.74,0,0,0-.88.43L15,4.45V3A3,3,0,0,0,14.11.88,3,3,0,0,0,12,0H3A3,3,0,0,0,0,3v8a3,3,0,0,0,3,3h9a3,3,0,0,0,2.12-.88A3,3,0,0,0,15,11V9.55l2.16,2a1.72,1.72,0,0,0,1.16.45,1.65,1.65,0,0,0,.69-.15,1.56,1.56,0,0,0,.73-.59,1.63,1.63,0,0,0,.27-.89V3.63a1.62,1.62,0,0,0-1-1.48ZM13,11a1,1,0,0,1-.29.71A1,1,0,0,1,12,12H3a1,1,0,0,1-.71-.29A1,1,0,0,1,2,11V3a1,1,0,0,1,.29-.71A1,1,0,0,1,3,2h9a1,1,0,0,1,.71.29A1,1,0,0,1,13,3Zm5-1.4L15.18,7,18,4.4Z"/></svg>