<svg id="Layer_1" data-name="Layer 1" xmlns="http://www.w3.org/2000/svg" viewBox="0 0 77 35"><path id="text" d="M30,8l.08,1.46a4.58,4.58,0,0,1,3.7-1.7q4,0,4,4.54v8.38H34.93V12.5a2.58,2.58,0,0,0-.53-1.78,2.16,2.16,0,0,0-1.7-.59,2.73,2.73,0,0,0-2.56,1.56v9H27.29V8ZM43.72,20.72H40.87v-18h2.85Zm6.14,0H47V8h2.85Zm-3-16a1.49,1.49,0,0,1,.41-1.09,1.88,1.88,0,0,1,2.39,0,1.5,1.5,0,0,1,.42,1.09,1.49,1.49,0,0,1-.42,1.08,1.91,1.91,0,0,1-2.39,0A1.49,1.49,0,0,1,46.84,4.74ZM55.61,8,55.7,9.5a4.55,4.55,0,0,1,3.69-1.7q4,0,4,4.54v8.38H60.57V12.5A2.58,2.58,0,0,0,60,10.72a2.16,2.16,0,0,0-1.7-.59,2.74,2.74,0,0,0-2.56,1.56v9H52.93V8ZM71.91,21a5.92,5.92,0,0,1-4.39-1.7,6.22,6.22,0,0,1-1.68-4.55v-.35A7.66,7.66,0,0,1,66.57,11a5.66,5.66,0,0,1,2.06-2.34,5.51,5.51,0,0,1,3-.83,5,5,0,0,1,4,1.65A6.94,6.94,0,0,1,77,14.13v1.15H68.71a3.85,3.85,0,0,0,1.05,2.48,3.17,3.17,0,0,0,2.32.92,3.86,3.86,0,0,0,3.19-1.59l1.53,1.47a5.16,5.16,0,0,1-2,1.77A6.42,6.42,0,0,1,71.91,21Zm-.34-10.86a2.38,2.38,0,0,0-1.89.82,4.21,4.21,0,0,0-.92,2.28h5.43V13a3.48,3.48,0,0,0-.76-2.16A2.4,2.4,0,0,0,71.57,10.09Z"/><g id="icon"><rect x="3" y="31.53" width="11" height="3.47" style="fill:#af2a32"/><polygon points="17 35 20.06 35 20.06 31.53 17 31.55 17 35" style="fill:#af2a32"/><path d="M24,11.92a12,12,0,0,0-24,0A11.91,11.91,0,0,0,7.58,23L3,25.88V30l9.48-6.15,7.58,6V25.57L16.6,22.93A11.94,11.94,0,0,0,24,11.92ZM12,17.75a5.92,5.92,0,1,1,6-5.92A6,6,0,0,1,12,17.75Z" style="fill:#af2a32"/><ellipse cx="12" cy="11.83" rx="3" ry="2.96" style="fill:#af2a32"/></g></svg>