<svg xmlns="http://www.w3.org/2000/svg" width="24" height="24" viewBox="0 0 24 24"><path d="M16.33,23.08s2.79,1.44,4.24.72A18.24,18.24,0,0,0,24,20.75c.18-1.26-4.78-7.72-6.76-5.12a13.69,13.69,0,0,1-1.62,2C13.18,17.06,7,10.87,6.33,8.36a13.71,13.71,0,0,1,2-1.62C10.93,4.76,4.44-.17,3.18,0a14.82,14.82,0,0,0-3,3.5C-.52,4.85.92,7.73.92,7.73,3.27,12.93,11.11,20.66,16.33,23.08Zm-5-19.84a.9.9,0,0,1,0-1.8A11.21,11.21,0,0,1,22.55,12.58a.9.9,0,0,1-1.8,0A9.35,9.35,0,0,0,11.38,3.24Zm1.53,4.13a.9.9,0,0,1,0-1.8A5.45,5.45,0,0,1,18.41,11a.86.86,0,1,1-1.71,0A3.73,3.73,0,0,0,12.91,7.37Z"/></svg>